<svg xmlns="http://www.w3.org/2000/svg" xmlns:xlink="http://www.w3.org/1999/xlink" width="909.696" height="698.263" viewBox="0 0 909.696 698.263">
  <defs>
    <filter id="Trazado_559" x="0" y="467.118" width="909.696" height="155.419" filterUnits="userSpaceOnUse">
      <feOffset dy="5" input="SourceAlpha"/>
      <feGaussianBlur stdDeviation="7.5" result="blur"/>
      <feFlood flood-opacity="0.161"/>
      <feComposite operator="in" in2="blur"/>
      <feComposite in="SourceGraphic"/>
    </filter>
  </defs>
  <g id="Project_Dashboard_Desktop" data-name="Project Dashboard Desktop" transform="translate(22.5)">
    <g id="Front-End_Desktop" data-name="Front-End Desktop">
      <g id="UI_UX_Desktop" data-name="UI/UX Desktop">
        <g transform="matrix(1, 0, 0, 1, -22.5, 0)" filter="url(#Trazado_559)">
          <path id="Trazado_559-2" data-name="Trazado 559" d="M15,0H849.7a15,15,0,0,1,15,15V95.42a15,15,0,0,1-15,15H15a15,15,0,0,1-15-15V15A15,15,0,0,1,15,0Z" transform="translate(22.5 484.62)" fill="#e6e6e6"/>
        </g>
        <path id="Trazado_555" data-name="Trazado 555" d="M15,0H849.7a15,15,0,0,1,15,15V502.618c0,8.284-.1,16.785,0,16.244L0,518.541c.237.081,0-7.639,0-15.923V15A15,15,0,0,1,15,0Z"/>
        <path id="Trazado_558" data-name="Trazado 558" d="M0,0H797.027V448.8H0Z" transform="translate(33.835 36.277)" fill="#fff"/>
        <rect id="Rectángulo_32" data-name="Rectángulo 32" width="171.106" height="97.614" transform="translate(346.795 595.038)" fill="#d8d8d8"/>
        <rect id="Rectángulo_33" data-name="Rectángulo 33" width="258.762" height="5.612" transform="translate(302.967 692.651)" fill="#e6e6e6"/>
        <path id="Trazado_189" data-name="Trazado 189" d="M71.322,58.526A11.374,11.374,0,1,0,59.948,69.9,11.375,11.375,0,0,0,71.322,58.526Z" transform="translate(372.404 497.811)"/>
        <circle id="Elipse_1" data-name="Elipse 1" cx="4.891" cy="4.891" r="4.891" transform="translate(427.457 14.271)" fill="#fff" opacity="0.378"/>
        <g id="b" transform="translate(33.904 36.263)">
          <g id="Grupo_6" data-name="Grupo 6" transform="translate(0.381 0.05)">
            <rect id="Rectángulo_3" data-name="Rectángulo 3" width="796.576" height="6.457" fill="none"/>
            <path id="Trazado_247" data-name="Trazado 247" d="M366.818,383.807a1.312,1.312,0,1,1-1.312-1.312A1.312,1.312,0,0,1,366.818,383.807Z" transform="translate(-359.266 -380.749)" fill="none"/>
            <path id="Trazado_248" data-name="Trazado 248" d="M382.56,383.807a1.312,1.312,0,1,1-1.312-1.312A1.312,1.312,0,0,1,382.56,383.807Z" transform="translate(-369.818 -380.749)" fill="none"/>
            <path id="Trazado_249" data-name="Trazado 249" d="M398.3,383.807a1.312,1.312,0,1,1-1.312-1.312A1.312,1.312,0,0,1,398.3,383.807Z" transform="translate(-380.371 -380.749)" fill="none"/>
            <rect id="Rectángulo_4" data-name="Rectángulo 4" width="46.54" height="4.277" transform="translate(349.943 1.305)" fill="none"/>
            <rect id="Rectángulo_5" data-name="Rectángulo 5" width="46.54" height="4.277" transform="translate(542.414 1.305)" fill="none"/>
            <g id="Grupo_5" data-name="Grupo 5" transform="translate(0 5.583)">
              <path id="Trazado_296" data-name="Trazado 296" d="M0,0H756.63V443.185H0Z" transform="translate(39.946)" fill="none"/>
              <g id="Grupo_3" data-name="Grupo 3" transform="translate(152.669 2.82)">
                <path id="Trazado_250" data-name="Trazado 250" d="M627.381,413.059h-1.456v-.2h.541V411.53h-.541v-.181a1.31,1.31,0,0,0,.452-.058.248.248,0,0,0,.163-.219h.311v1.784h.529Z" transform="translate(-625.666 -411.04)" fill="none"/>
                <path id="Trazado_251" data-name="Trazado 251" d="M633.767,411.95a1.116,1.116,0,0,1-.234.782.945.945,0,0,1-.721.249.934.934,0,0,1-.724-.254,1.425,1.425,0,0,1,0-1.559.949.949,0,0,1,.721-.248.927.927,0,0,1,.724.256A1.123,1.123,0,0,1,633.767,411.95Zm-.514.6a.7.7,0,0,0,.082-.248,2.608,2.608,0,0,0,0-.709.687.687,0,0,0-.084-.25.39.39,0,0,0-.165-.154.615.615,0,0,0-.274-.052.625.625,0,0,0-.274.052.4.4,0,0,0-.169.156.689.689,0,0,0-.083.255,2.539,2.539,0,0,0-.022.348,2.622,2.622,0,0,0,.019.347.667.667,0,0,0,.083.25.393.393,0,0,0,.166.158.74.74,0,0,0,.554,0A.383.383,0,0,0,633.253,412.553Z" transform="translate(-629.642 -410.921)" fill="none"/>
                <path id="Trazado_252" data-name="Trazado 252" d="M627.381,431.786h-1.456v-.2h.541v-1.327h-.541v-.181a1.3,1.3,0,0,0,.452-.058.248.248,0,0,0,.163-.219h.311v1.784h.529Z" transform="translate(-625.666 -425.675)" fill="none"/>
                <path id="Trazado_253" data-name="Trazado 253" d="M634.183,431.786h-1.456v-.2h.541v-1.327h-.541v-.181a1.3,1.3,0,0,0,.452-.058.248.248,0,0,0,.164-.219h.311v1.784h.529Z" transform="translate(-630.226 -425.675)" fill="none"/>
                <path id="Trazado_254" data-name="Trazado 254" d="M627.381,450.514h-1.456v-.2h.541v-1.327h-.541V448.8a1.305,1.305,0,0,0,.452-.058.248.248,0,0,0,.163-.219h.311v1.784h.529Z" transform="translate(-625.666 -440.312)" fill="none"/>
                <path id="Trazado_255" data-name="Trazado 255" d="M633.859,450.39h-1.844v-.278q.2-.125.375-.239t.345-.238a2.746,2.746,0,0,0,.465-.4.478.478,0,0,0,.125-.309.268.268,0,0,0-.039-.145.314.314,0,0,0-.107-.1.573.573,0,0,0-.163-.06.961.961,0,0,0-.2-.02,1.325,1.325,0,0,0-.216.018q-.109.018-.21.044a1.391,1.391,0,0,0-.162.055c-.052.021-.094.04-.126.054h-.022v-.282a2.581,2.581,0,0,1,.346-.08,2.414,2.414,0,0,1,.42-.039,1.238,1.238,0,0,1,.654.147.449.449,0,0,1,.237.4.549.549,0,0,1-.041.214.673.673,0,0,1-.113.182,1.4,1.4,0,0,1-.179.172q-.1.085-.221.168-.189.135-.42.282t-.37.231h1.468Z" transform="translate(-629.748 -440.188)" fill="none"/>
                <path id="Trazado_256" data-name="Trazado 256" d="M627.381,469.242h-1.456v-.2h.541v-1.327h-.541v-.181a1.3,1.3,0,0,0,.452-.058.248.248,0,0,0,.163-.219h.311v1.784h.529Z" transform="translate(-625.666 -454.948)" fill="none"/>
                <path id="Trazado_257" data-name="Trazado 257" d="M632.773,467.328a1.371,1.371,0,0,0-.217.017,2.172,2.172,0,0,0-.213.045,1.532,1.532,0,0,0-.167.056l-.127.055h-.024v-.28a2.188,2.188,0,0,1,.354-.085,2.573,2.573,0,0,1,.426-.038,2.025,2.025,0,0,1,.354.027,1.114,1.114,0,0,1,.274.084.53.53,0,0,1,.2.154.345.345,0,0,1,.067.211.356.356,0,0,1-.162.287.829.829,0,0,1-.389.157v.019a1.486,1.486,0,0,1,.2.041.757.757,0,0,1,.2.087.473.473,0,0,1,.151.147.4.4,0,0,1,.058.219.46.46,0,0,1-.069.246.666.666,0,0,1-.2.2.961.961,0,0,1-.315.137,1.725,1.725,0,0,1-.419.046,2.781,2.781,0,0,1-.445-.036,2.4,2.4,0,0,1-.371-.086v-.281h.028a1.927,1.927,0,0,0,.339.117,1.674,1.674,0,0,0,.425.056,1.2,1.2,0,0,0,.246-.026.546.546,0,0,0,.206-.085.444.444,0,0,0,.122-.129.344.344,0,0,0,.042-.178.309.309,0,0,0-.047-.177.321.321,0,0,0-.131-.109.672.672,0,0,0-.2-.055,1.926,1.926,0,0,0-.25-.015h-.171v-.221h.133a.986.986,0,0,0,.44-.085.268.268,0,0,0,.17-.247.2.2,0,0,0-.044-.128.317.317,0,0,0-.112-.086.618.618,0,0,0-.168-.048A1.4,1.4,0,0,0,632.773,467.328Z" transform="translate(-629.699 -454.825)" fill="none"/>
                <path id="Trazado_258" data-name="Trazado 258" d="M627.381,487.97h-1.456v-.2h.541v-1.327h-.541v-.181a1.313,1.313,0,0,0,.452-.058.248.248,0,0,0,.163-.219h.311v1.784h.529Z" transform="translate(-625.666 -404.625)" fill="none"/>
                <path id="Trazado_259" data-name="Trazado 259" d="M633.655,487.313H633.3v.681h-.385v-.681h-1.32v-.279l1.336-1.02h.369V487.1h.355Zm-.74-.213v-.774l-1.007.774Z" transform="translate(-629.467 -404.628)" fill="none"/>
                <path id="Trazado_260" data-name="Trazado 260" d="M627.381,506.7h-1.456v-.2h.541v-1.327h-.541v-.181a1.305,1.305,0,0,0,.452-.058.248.248,0,0,0,.163-.219h.311V506.5h.529Z" transform="translate(-625.666 -403.055)" fill="none"/>
                <path id="Trazado_261" data-name="Trazado 261" d="M633.885,506.091a.531.531,0,0,1-.069.266.658.658,0,0,1-.194.211.989.989,0,0,1-.314.142,1.579,1.579,0,0,1-.42.052,2.844,2.844,0,0,1-.422-.031,2.187,2.187,0,0,1-.36-.082v-.281h.028a1.123,1.123,0,0,0,.133.051q.086.029.191.054t.217.043a1.406,1.406,0,0,0,.221.016.97.97,0,0,0,.235-.029.526.526,0,0,0,.2-.092.4.4,0,0,0,.113-.137.408.408,0,0,0,.039-.185.316.316,0,0,0-.043-.173.323.323,0,0,0-.125-.112.613.613,0,0,0-.212-.071,1.735,1.735,0,0,0-.28-.021,3.258,3.258,0,0,0-.327.017c-.11.011-.2.021-.263.031v-1.02h1.639v.233h-1.251v.526l.142-.008.128,0a2.513,2.513,0,0,1,.387.025,1.044,1.044,0,0,1,.3.1.6.6,0,0,1,.228.186A.492.492,0,0,1,633.885,506.091Z" transform="translate(-629.809 -403.02)" fill="none"/>
                <path id="Trazado_262" data-name="Trazado 262" d="M627.381,525.425h-1.456v-.2h.541V523.9h-.541v-.181a1.3,1.3,0,0,0,.452-.058.248.248,0,0,0,.163-.219h.311v1.784h.529Z" transform="translate(-625.666 -401.484)" fill="none"/>
                <path id="Trazado_263" data-name="Trazado 263" d="M633.807,524.674a.544.544,0,0,1-.076.282.667.667,0,0,1-.2.215,1.023,1.023,0,0,1-.3.139,1.341,1.341,0,0,1-.367.047,1.391,1.391,0,0,1-.368-.045.921.921,0,0,1-.292-.134.732.732,0,0,1-.242-.288,1.015,1.015,0,0,1-.087-.443,1.287,1.287,0,0,1,.08-.466.958.958,0,0,1,.247-.362,1.123,1.123,0,0,1,.419-.235,1.9,1.9,0,0,1,.594-.085c.067,0,.129,0,.187.007a1.108,1.108,0,0,1,.152.021v.254h-.018a.889.889,0,0,0-.157-.036,1.355,1.355,0,0,0-.219-.017,1,1,0,0,0-.6.167.688.688,0,0,0-.272.5,1.54,1.54,0,0,1,.293-.1,1.425,1.425,0,0,1,.329-.036,1.8,1.8,0,0,1,.306.023,1.039,1.039,0,0,1,.274.094.6.6,0,0,1,.245.209A.54.54,0,0,1,633.807,524.674Zm-.407.011a.4.4,0,0,0-.048-.2.39.39,0,0,0-.156-.141.515.515,0,0,0-.178-.056,1.557,1.557,0,0,0-.2-.013,1.323,1.323,0,0,0-.273.028,1.476,1.476,0,0,0-.261.081c0,.019,0,.038-.006.056s0,.041,0,.069a.773.773,0,0,0,.061.332.5.5,0,0,0,.152.191.542.542,0,0,0,.177.088.733.733,0,0,0,.2.025.625.625,0,0,0,.39-.114A.4.4,0,0,0,633.4,524.684Z" transform="translate(-629.651 -401.414)" fill="none"/>
                <path id="Trazado_264" data-name="Trazado 264" d="M627.381,544.153h-1.456v-.2h.541v-1.327h-.541v-.181a1.309,1.309,0,0,0,.452-.058.248.248,0,0,0,.163-.219h.311v1.784h.529Z" transform="translate(-625.666 -399.913)" fill="none"/>
                <path id="Trazado_265" data-name="Trazado 265" d="M633.85,542.494l-1.292,1.683h-.427l1.368-1.747h-1.545V542.2h1.9Z" transform="translate(-629.707 -399.92)" fill="none"/>
                <path id="Trazado_266" data-name="Trazado 266" d="M627.381,562.881h-1.456v-.2h.541v-1.327h-.541v-.181a1.311,1.311,0,0,0,.452-.058.248.248,0,0,0,.163-.219h.311v1.784h.529Z" transform="translate(-625.666 -398.343)" fill="none"/>
                <path id="Trazado_267" data-name="Trazado 267" d="M632.775,562.789a1.736,1.736,0,0,1-.405-.044,1,1,0,0,1-.311-.126.569.569,0,0,1-.192-.189.444.444,0,0,1-.065-.232.421.421,0,0,1,.129-.3.893.893,0,0,1,.376-.215v-.008a1,1,0,0,1-.327-.186.334.334,0,0,1-.106-.253.432.432,0,0,1,.255-.372,1.263,1.263,0,0,1,.646-.149,1.3,1.3,0,0,1,.653.141.416.416,0,0,1,.246.362.394.394,0,0,1-.118.263.767.767,0,0,1-.338.2v.008a1.112,1.112,0,0,1,.4.2.376.376,0,0,1,.134.3.5.5,0,0,1-.278.425A1.3,1.3,0,0,1,632.775,562.789Zm.561-.572a.261.261,0,0,0-.072-.194.8.8,0,0,0-.279-.146c-.045-.017-.106-.035-.182-.054l-.256-.069a.677.677,0,0,0-.255.18.373.373,0,0,0-.088.244.352.352,0,0,0,.163.3.687.687,0,0,0,.41.117.726.726,0,0,0,.405-.1A.311.311,0,0,0,633.336,562.217Zm-.056-.992a.261.261,0,0,0-.134-.222.674.674,0,0,0-.373-.089.715.715,0,0,0-.358.08.241.241,0,0,0-.139.216.22.22,0,0,0,.071.166.643.643,0,0,0,.214.122c.042.015.1.036.19.062s.162.047.232.063a.614.614,0,0,0,.236-.183A.378.378,0,0,0,633.28,561.225Z" transform="translate(-629.606 -398.231)" fill="none"/>
                <path id="Trazado_268" data-name="Trazado 268" d="M627.381,581.608h-1.456v-.2h.541v-1.327h-.541V579.9a1.3,1.3,0,0,0,.452-.058.248.248,0,0,0,.163-.219h.311v1.784h.529Z" transform="translate(-625.666 -396.772)" fill="none"/>
                <path id="Trazado_269" data-name="Trazado 269" d="M631.759,580.153a.535.535,0,0,1,.075-.279.715.715,0,0,1,.206-.218.977.977,0,0,1,.3-.137,1.373,1.373,0,0,1,.364-.049,1.414,1.414,0,0,1,.374.046.915.915,0,0,1,.29.132.733.733,0,0,1,.24.286,1.029,1.029,0,0,1,.085.447,1.3,1.3,0,0,1-.083.466.913.913,0,0,1-.246.365,1.171,1.171,0,0,1-.414.235,1.9,1.9,0,0,1-.6.081c-.053,0-.11,0-.171-.006a1.216,1.216,0,0,1-.168-.022v-.254h.02a.889.889,0,0,0,.157.036,1.361,1.361,0,0,0,.217.017,1,1,0,0,0,.618-.172.662.662,0,0,0,.255-.491,1.645,1.645,0,0,1-.306.105,1.409,1.409,0,0,1-.316.033,1.757,1.757,0,0,1-.3-.024,1,1,0,0,1-.275-.093.613.613,0,0,1-.243-.205A.53.53,0,0,1,631.759,580.153Zm1.535.17a.816.816,0,0,0-.056-.329.459.459,0,0,0-.154-.2.542.542,0,0,0-.179-.088.775.775,0,0,0-.2-.024.611.611,0,0,0-.393.117.407.407,0,0,0-.147.339.4.4,0,0,0,.048.206.39.39,0,0,0,.156.14.507.507,0,0,0,.172.055,1.443,1.443,0,0,0,.207.014,1.414,1.414,0,0,0,.277-.03,1.256,1.256,0,0,0,.258-.079c0-.013,0-.031.005-.053S633.294,580.35,633.294,580.324Z" transform="translate(-629.577 -396.663)" fill="none"/>
                <path id="Trazado_270" data-name="Trazado 270" d="M627.056,600.212h-1.843v-.278q.2-.125.375-.239t.345-.238a2.747,2.747,0,0,0,.465-.4.479.479,0,0,0,.125-.309.268.268,0,0,0-.039-.145.315.315,0,0,0-.107-.1.574.574,0,0,0-.162-.06.958.958,0,0,0-.2-.02,1.321,1.321,0,0,0-.216.018q-.109.018-.21.044a1.438,1.438,0,0,0-.162.055c-.052.021-.094.04-.126.055h-.022v-.282a2.551,2.551,0,0,1,.346-.08,2.411,2.411,0,0,1,.42-.039,1.238,1.238,0,0,1,.654.147.45.45,0,0,1,.237.4.55.55,0,0,1-.041.214.677.677,0,0,1-.113.182,1.383,1.383,0,0,1-.178.171q-.1.085-.22.168-.189.136-.42.282t-.37.231h1.468Z" transform="translate(-625.189 -395.15)" fill="none"/>
                <path id="Trazado_271" data-name="Trazado 271" d="M633.767,599.227a1.116,1.116,0,0,1-.234.782.945.945,0,0,1-.721.249.933.933,0,0,1-.724-.254,1.425,1.425,0,0,1,0-1.559.948.948,0,0,1,.721-.248.928.928,0,0,1,.724.256A1.124,1.124,0,0,1,633.767,599.227Zm-.514.6a.7.7,0,0,0,.082-.249,2.608,2.608,0,0,0,0-.708.688.688,0,0,0-.084-.25.392.392,0,0,0-.165-.154.615.615,0,0,0-.274-.052.624.624,0,0,0-.274.052.4.4,0,0,0-.169.156.69.69,0,0,0-.083.255,2.534,2.534,0,0,0-.022.348,2.623,2.623,0,0,0,.019.347.665.665,0,0,0,.083.25.391.391,0,0,0,.166.158.61.61,0,0,0,.28.055.623.623,0,0,0,.274-.052A.384.384,0,0,0,633.253,599.83Z" transform="translate(-629.642 -395.074)" fill="none"/>
                <path id="Trazado_272" data-name="Trazado 272" d="M627.056,618.94h-1.843v-.278q.2-.125.375-.239t.345-.238a2.758,2.758,0,0,0,.465-.4.479.479,0,0,0,.125-.309.268.268,0,0,0-.039-.145.317.317,0,0,0-.107-.1.566.566,0,0,0-.162-.06.963.963,0,0,0-.2-.02,1.334,1.334,0,0,0-.216.018c-.073.012-.143.027-.21.045a1.358,1.358,0,0,0-.162.055c-.052.021-.094.039-.126.054h-.022v-.282a2.57,2.57,0,0,1,.346-.08,2.4,2.4,0,0,1,.42-.039,1.239,1.239,0,0,1,.654.147.45.45,0,0,1,.237.4.551.551,0,0,1-.041.214.672.672,0,0,1-.113.182,1.384,1.384,0,0,1-.178.172q-.1.085-.22.168-.189.136-.42.282l-.37.231h1.468Z" transform="translate(-625.189 -393.572)" fill="none"/>
                <path id="Trazado_273" data-name="Trazado 273" d="M634.183,619.064h-1.456v-.2h.541v-1.327h-.541v-.181a1.313,1.313,0,0,0,.452-.058.249.249,0,0,0,.164-.219h.311v1.784h.529Z" transform="translate(-630.226 -393.631)" fill="none"/>
                <path id="Trazado_274" data-name="Trazado 274" d="M627.056,637.668h-1.843v-.278q.2-.125.375-.239t.345-.238a2.749,2.749,0,0,0,.465-.4.478.478,0,0,0,.125-.309.268.268,0,0,0-.039-.145.317.317,0,0,0-.107-.1.568.568,0,0,0-.162-.06.951.951,0,0,0-.2-.02,1.32,1.32,0,0,0-.216.018c-.073.012-.143.027-.21.045a1.326,1.326,0,0,0-.162.055c-.052.021-.094.039-.126.054h-.022v-.282a2.591,2.591,0,0,1,.346-.081,2.44,2.44,0,0,1,.42-.039,1.239,1.239,0,0,1,.654.147.45.45,0,0,1,.237.4.552.552,0,0,1-.041.214.674.674,0,0,1-.113.182,1.388,1.388,0,0,1-.178.172q-.1.085-.22.168-.189.135-.42.282l-.37.231h1.468Z" transform="translate(-625.189 -391.995)" fill="none"/>
                <path id="Trazado_275" data-name="Trazado 275" d="M633.859,637.668h-1.844v-.278q.2-.125.375-.239t.345-.238a2.746,2.746,0,0,0,.465-.4.478.478,0,0,0,.125-.309.268.268,0,0,0-.039-.145.315.315,0,0,0-.107-.1.566.566,0,0,0-.163-.06.95.95,0,0,0-.2-.02,1.324,1.324,0,0,0-.216.018c-.073.012-.143.027-.21.045a1.3,1.3,0,0,0-.162.055c-.052.021-.094.039-.126.054h-.022v-.282a2.612,2.612,0,0,1,.346-.081,2.439,2.439,0,0,1,.42-.039,1.238,1.238,0,0,1,.654.147.45.45,0,0,1,.237.4.551.551,0,0,1-.041.214.675.675,0,0,1-.113.182,1.416,1.416,0,0,1-.179.172q-.1.085-.221.168-.189.135-.42.282l-.37.231h1.468Z" transform="translate(-629.748 -391.995)" fill="none"/>
                <path id="Trazado_276" data-name="Trazado 276" d="M627.056,656.4h-1.843v-.278q.2-.125.375-.239t.345-.238a2.759,2.759,0,0,0,.465-.4.478.478,0,0,0,.125-.309.268.268,0,0,0-.039-.145.318.318,0,0,0-.107-.1.577.577,0,0,0-.162-.06.955.955,0,0,0-.2-.02,1.341,1.341,0,0,0-.216.018q-.109.018-.21.045a1.425,1.425,0,0,0-.162.054c-.052.021-.094.04-.126.055h-.022v-.282a2.631,2.631,0,0,1,.346-.08,2.4,2.4,0,0,1,.42-.039,1.237,1.237,0,0,1,.654.147.45.45,0,0,1,.237.4.55.55,0,0,1-.041.214.676.676,0,0,1-.113.182,1.4,1.4,0,0,1-.178.171q-.1.085-.22.168-.189.135-.42.282t-.37.231h1.468Z" transform="translate(-625.189 -390.417)" fill="none"/>
                <path id="Trazado_277" data-name="Trazado 277" d="M632.773,654.6a1.392,1.392,0,0,0-.217.017,2.071,2.071,0,0,0-.213.045,1.467,1.467,0,0,0-.167.056l-.127.055h-.024v-.28a2.171,2.171,0,0,1,.354-.084,2.554,2.554,0,0,1,.426-.038,2.02,2.02,0,0,1,.354.027,1.117,1.117,0,0,1,.274.084.533.533,0,0,1,.2.154.346.346,0,0,1,.067.211.356.356,0,0,1-.162.287.83.83,0,0,1-.389.157v.019a1.435,1.435,0,0,1,.2.041.74.74,0,0,1,.2.086.471.471,0,0,1,.151.147.393.393,0,0,1,.058.219.461.461,0,0,1-.069.247.669.669,0,0,1-.2.2.955.955,0,0,1-.315.137,1.72,1.72,0,0,1-.419.047,2.784,2.784,0,0,1-.445-.036,2.335,2.335,0,0,1-.371-.087v-.28h.028a1.928,1.928,0,0,0,.339.117,1.675,1.675,0,0,0,.425.056,1.2,1.2,0,0,0,.246-.026.545.545,0,0,0,.206-.084.448.448,0,0,0,.122-.129.345.345,0,0,0,.042-.178.308.308,0,0,0-.047-.177.32.32,0,0,0-.131-.109.675.675,0,0,0-.2-.055,1.938,1.938,0,0,0-.25-.015h-.171v-.221h.133a.982.982,0,0,0,.44-.085.267.267,0,0,0,.17-.247.2.2,0,0,0-.044-.128.316.316,0,0,0-.112-.086.624.624,0,0,0-.168-.048A1.375,1.375,0,0,0,632.773,654.6Z" transform="translate(-629.699 -390.317)" fill="none"/>
                <path id="Trazado_278" data-name="Trazado 278" d="M627.056,675.124h-1.843v-.278q.2-.125.375-.239t.345-.238a2.74,2.74,0,0,0,.465-.4.478.478,0,0,0,.125-.309.269.269,0,0,0-.039-.145.318.318,0,0,0-.107-.1.579.579,0,0,0-.162-.06.963.963,0,0,0-.2-.02,1.362,1.362,0,0,0-.216.018q-.109.018-.21.045a1.425,1.425,0,0,0-.162.054c-.052.021-.094.039-.126.055h-.022v-.282a2.608,2.608,0,0,1,.346-.08,2.44,2.44,0,0,1,.42-.039,1.238,1.238,0,0,1,.654.147.45.45,0,0,1,.237.4.549.549,0,0,1-.041.214.67.67,0,0,1-.113.182,1.4,1.4,0,0,1-.178.172q-.1.085-.22.167-.189.135-.42.282t-.37.231h1.468Z" transform="translate(-625.189 -388.841)" fill="none"/>
                <path id="Trazado_279" data-name="Trazado 279" d="M633.655,674.591H633.3v.681h-.385v-.681h-1.32v-.279l1.336-1.019h.369v1.086h.355Zm-.74-.213V673.6l-1.007.774Z" transform="translate(-629.467 -388.934)" fill="none"/>
                <path id="Trazado_280" data-name="Trazado 280" d="M627.056,693.851h-1.843v-.278q.2-.125.375-.24t.345-.238a2.743,2.743,0,0,0,.465-.4.478.478,0,0,0,.125-.309.269.269,0,0,0-.039-.145.317.317,0,0,0-.107-.1.581.581,0,0,0-.162-.06.984.984,0,0,0-.2-.02,1.328,1.328,0,0,0-.216.018q-.109.018-.21.044a1.425,1.425,0,0,0-.162.055c-.052.021-.094.039-.126.055h-.022v-.282a2.616,2.616,0,0,1,.346-.08,2.41,2.41,0,0,1,.42-.039,1.238,1.238,0,0,1,.654.147.45.45,0,0,1,.237.4.552.552,0,0,1-.041.214.674.674,0,0,1-.113.182,1.405,1.405,0,0,1-.178.172q-.1.085-.22.167-.189.135-.42.282t-.37.231h1.468Z" transform="translate(-625.189 -387.264)" fill="none"/>
                <path id="Trazado_281" data-name="Trazado 281" d="M633.885,693.369a.53.53,0,0,1-.069.266.66.66,0,0,1-.194.212,1,1,0,0,1-.314.142,1.589,1.589,0,0,1-.42.052,2.848,2.848,0,0,1-.422-.031,2.19,2.19,0,0,1-.36-.082v-.281h.028a1.132,1.132,0,0,0,.133.051q.086.028.191.054t.217.043a1.465,1.465,0,0,0,.221.015.956.956,0,0,0,.235-.029.524.524,0,0,0,.2-.092.4.4,0,0,0,.113-.137.409.409,0,0,0,.039-.185.318.318,0,0,0-.043-.173.324.324,0,0,0-.125-.112.617.617,0,0,0-.212-.071,1.76,1.76,0,0,0-.28-.021,3.214,3.214,0,0,0-.327.017c-.11.011-.2.021-.263.031V692.02h1.639v.232h-1.251v.526l.142-.008.128,0a2.527,2.527,0,0,1,.387.025,1.047,1.047,0,0,1,.3.1.6.6,0,0,1,.228.186A.492.492,0,0,1,633.885,693.369Z" transform="translate(-629.809 -387.248)" fill="none"/>
                <path id="Trazado_282" data-name="Trazado 282" d="M627.056,712.58h-1.843V712.3l.375-.24q.177-.114.345-.238a2.74,2.74,0,0,0,.465-.4.478.478,0,0,0,.125-.309.268.268,0,0,0-.039-.145.318.318,0,0,0-.107-.1.585.585,0,0,0-.162-.06.98.98,0,0,0-.2-.02,1.328,1.328,0,0,0-.216.018q-.109.018-.21.044a1.462,1.462,0,0,0-.162.054c-.052.021-.094.04-.126.055h-.022v-.282a2.628,2.628,0,0,1,.346-.08,2.428,2.428,0,0,1,.42-.039,1.239,1.239,0,0,1,.654.147.45.45,0,0,1,.237.4.551.551,0,0,1-.041.214.673.673,0,0,1-.113.182,1.393,1.393,0,0,1-.178.172q-.1.085-.22.167-.189.135-.42.282t-.37.231h1.468Z" transform="translate(-625.189 -385.687)" fill="none"/>
                <path id="Trazado_283" data-name="Trazado 283" d="M633.807,711.951a.544.544,0,0,1-.076.282.664.664,0,0,1-.2.215,1.022,1.022,0,0,1-.3.139,1.332,1.332,0,0,1-.367.047,1.4,1.4,0,0,1-.368-.045.918.918,0,0,1-.292-.134.732.732,0,0,1-.242-.288,1.015,1.015,0,0,1-.087-.444,1.287,1.287,0,0,1,.08-.466.961.961,0,0,1,.247-.362,1.129,1.129,0,0,1,.419-.235,1.9,1.9,0,0,1,.594-.085c.067,0,.129,0,.187.007a1.106,1.106,0,0,1,.152.021v.254h-.018a.884.884,0,0,0-.157-.036,1.355,1.355,0,0,0-.219-.017,1,1,0,0,0-.6.167.687.687,0,0,0-.272.5,1.5,1.5,0,0,1,.293-.1,1.425,1.425,0,0,1,.329-.036,1.751,1.751,0,0,1,.306.023,1.015,1.015,0,0,1,.274.094.6.6,0,0,1,.245.209A.54.54,0,0,1,633.807,711.951Zm-.407.011a.4.4,0,0,0-.048-.2.389.389,0,0,0-.156-.141.508.508,0,0,0-.178-.056,1.506,1.506,0,0,0-.2-.013,1.315,1.315,0,0,0-.273.028,1.466,1.466,0,0,0-.261.081c0,.02,0,.038-.006.057s0,.041,0,.068a.772.772,0,0,0,.061.333.5.5,0,0,0,.152.191.551.551,0,0,0,.177.088.738.738,0,0,0,.2.025.624.624,0,0,0,.39-.114A.4.4,0,0,0,633.4,711.961Z" transform="translate(-629.651 -385.572)" fill="none"/>
                <path id="Trazado_284" data-name="Trazado 284" d="M627.056,731.307h-1.843v-.278q.2-.125.375-.24t.345-.238a2.743,2.743,0,0,0,.465-.4.478.478,0,0,0,.125-.309.269.269,0,0,0-.039-.145.32.32,0,0,0-.107-.1.581.581,0,0,0-.162-.06.958.958,0,0,0-.2-.02,1.321,1.321,0,0,0-.216.018q-.109.018-.21.044a1.462,1.462,0,0,0-.162.054c-.052.021-.094.04-.126.055h-.022v-.282a2.565,2.565,0,0,1,.346-.081,2.429,2.429,0,0,1,.42-.039,1.239,1.239,0,0,1,.654.147.45.45,0,0,1,.237.4.551.551,0,0,1-.041.214.677.677,0,0,1-.113.182,1.413,1.413,0,0,1-.178.172q-.1.085-.22.167-.189.136-.42.282t-.37.231h1.468Z" transform="translate(-625.189 -384.109)" fill="none"/>
                <path id="Trazado_285" data-name="Trazado 285" d="M633.85,729.771l-1.292,1.683h-.427l1.368-1.747h-1.545v-.232h1.9Z" transform="translate(-629.707 -384.226)" fill="none"/>
                <path id="Trazado_286" data-name="Trazado 286" d="M627.056,750.034h-1.843v-.278l.375-.239q.177-.114.345-.238a2.747,2.747,0,0,0,.465-.4.479.479,0,0,0,.125-.309.268.268,0,0,0-.039-.145.322.322,0,0,0-.107-.1.577.577,0,0,0-.162-.06.963.963,0,0,0-.2-.02,1.321,1.321,0,0,0-.216.018q-.109.018-.21.044a1.45,1.45,0,0,0-.162.055c-.052.021-.094.04-.126.055h-.022v-.282a2.573,2.573,0,0,1,.346-.081,2.416,2.416,0,0,1,.42-.039,1.239,1.239,0,0,1,.654.147.45.45,0,0,1,.237.4.551.551,0,0,1-.041.214.678.678,0,0,1-.113.182,1.417,1.417,0,0,1-.178.171q-.1.085-.22.167-.189.136-.42.282l-.37.231h1.468Z" transform="translate(-625.189 -333.729)" fill="none"/>
                <path id="Trazado_287" data-name="Trazado 287" d="M632.775,750.066a1.746,1.746,0,0,1-.405-.044,1.006,1.006,0,0,1-.311-.126.567.567,0,0,1-.192-.189.443.443,0,0,1-.065-.232.42.42,0,0,1,.129-.3.888.888,0,0,1,.376-.215v-.008a1,1,0,0,1-.327-.186.334.334,0,0,1-.106-.253.432.432,0,0,1,.255-.372,1.266,1.266,0,0,1,.646-.149,1.3,1.3,0,0,1,.653.142.415.415,0,0,1,.246.362.4.4,0,0,1-.118.263.769.769,0,0,1-.338.2v.008a1.115,1.115,0,0,1,.4.2.376.376,0,0,1,.134.3.5.5,0,0,1-.278.425A1.3,1.3,0,0,1,632.775,750.066Zm.561-.572a.261.261,0,0,0-.072-.194.8.8,0,0,0-.279-.146c-.045-.017-.106-.035-.182-.054l-.256-.069a.681.681,0,0,0-.255.18.375.375,0,0,0-.088.244.352.352,0,0,0,.163.3.687.687,0,0,0,.41.117.725.725,0,0,0,.405-.1A.311.311,0,0,0,633.336,749.494Zm-.056-.992a.261.261,0,0,0-.134-.222.672.672,0,0,0-.373-.089.717.717,0,0,0-.358.08.241.241,0,0,0-.139.215.22.22,0,0,0,.071.166.642.642,0,0,0,.214.122c.042.015.1.036.19.063s.162.047.232.063a.613.613,0,0,0,.236-.183A.379.379,0,0,0,633.28,748.5Z" transform="translate(-629.606 -333.715)" fill="none"/>
                <path id="Trazado_288" data-name="Trazado 288" d="M627.056,768.761h-1.843v-.278l.375-.239q.177-.114.345-.238a2.75,2.75,0,0,0,.465-.4.479.479,0,0,0,.125-.309.269.269,0,0,0-.039-.145.323.323,0,0,0-.107-.1.581.581,0,0,0-.162-.06.963.963,0,0,0-.2-.02,1.32,1.32,0,0,0-.216.018q-.109.018-.21.044a1.451,1.451,0,0,0-.162.055c-.052.021-.094.039-.126.055h-.022v-.282a2.583,2.583,0,0,1,.346-.081,2.434,2.434,0,0,1,.42-.039,1.239,1.239,0,0,1,.654.147.45.45,0,0,1,.237.4.55.55,0,0,1-.041.214.677.677,0,0,1-.113.182,1.413,1.413,0,0,1-.178.172q-.1.085-.22.168-.189.135-.42.282t-.37.231h1.468Z" transform="translate(-625.189 -348.364)" fill="none"/>
                <path id="Trazado_289" data-name="Trazado 289" d="M631.759,767.43a.534.534,0,0,1,.075-.279.711.711,0,0,1,.206-.218.967.967,0,0,1,.3-.137,1.381,1.381,0,0,1,.364-.049,1.417,1.417,0,0,1,.374.046.923.923,0,0,1,.29.132.734.734,0,0,1,.24.286,1.03,1.03,0,0,1,.085.447,1.3,1.3,0,0,1-.083.466.914.914,0,0,1-.246.365,1.175,1.175,0,0,1-.414.235,1.9,1.9,0,0,1-.6.081c-.053,0-.11,0-.171-.006a1.245,1.245,0,0,1-.168-.022v-.254h.02a.885.885,0,0,0,.157.036,1.326,1.326,0,0,0,.217.017,1,1,0,0,0,.618-.171.663.663,0,0,0,.255-.49,1.661,1.661,0,0,1-.306.1,1.409,1.409,0,0,1-.316.033,1.732,1.732,0,0,1-.3-.024.981.981,0,0,1-.275-.093.613.613,0,0,1-.243-.205A.53.53,0,0,1,631.759,767.43Zm1.535.17a.818.818,0,0,0-.056-.329.458.458,0,0,0-.154-.2.544.544,0,0,0-.179-.088.781.781,0,0,0-.2-.024.611.611,0,0,0-.393.117.408.408,0,0,0-.147.339.4.4,0,0,0,.048.206.391.391,0,0,0,.156.14.509.509,0,0,0,.172.055,1.434,1.434,0,0,0,.207.014,1.419,1.419,0,0,0,.277-.03,1.255,1.255,0,0,0,.258-.079c0-.013,0-.031.005-.052S633.294,767.627,633.294,767.6Z" transform="translate(-629.577 -348.369)" fill="none"/>
                <path id="Trazado_290" data-name="Trazado 290" d="M625.97,785.7a1.394,1.394,0,0,0-.217.017,2.071,2.071,0,0,0-.213.045,1.5,1.5,0,0,0-.168.056l-.127.055h-.024v-.281a2.164,2.164,0,0,1,.354-.084,2.545,2.545,0,0,1,.426-.038,2.027,2.027,0,0,1,.354.027,1.111,1.111,0,0,1,.274.084.528.528,0,0,1,.2.154.345.345,0,0,1,.067.211.357.357,0,0,1-.162.287.827.827,0,0,1-.389.157v.019a1.435,1.435,0,0,1,.2.041.745.745,0,0,1,.2.086.467.467,0,0,1,.15.147.392.392,0,0,1,.058.218.462.462,0,0,1-.069.247.668.668,0,0,1-.2.2.959.959,0,0,1-.315.137,1.721,1.721,0,0,1-.419.047,2.777,2.777,0,0,1-.445-.036,2.366,2.366,0,0,1-.371-.086v-.28h.028a1.938,1.938,0,0,0,.339.117,1.675,1.675,0,0,0,.425.056,1.2,1.2,0,0,0,.246-.026.55.55,0,0,0,.206-.084.444.444,0,0,0,.122-.129.345.345,0,0,0,.042-.178.309.309,0,0,0-.047-.177.322.322,0,0,0-.132-.109.672.672,0,0,0-.2-.055,1.889,1.889,0,0,0-.25-.015h-.17v-.22h.133a.982.982,0,0,0,.44-.085.267.267,0,0,0,.169-.247.2.2,0,0,0-.044-.128.322.322,0,0,0-.112-.086.633.633,0,0,0-.169-.048A1.369,1.369,0,0,0,625.97,785.7Z" transform="translate(-625.14 -363.001)" fill="none"/>
                <path id="Trazado_291" data-name="Trazado 291" d="M633.767,786.5a1.115,1.115,0,0,1-.234.782.944.944,0,0,1-.721.249.933.933,0,0,1-.724-.254,1.425,1.425,0,0,1,0-1.559.949.949,0,0,1,.721-.248.927.927,0,0,1,.724.256A1.123,1.123,0,0,1,633.767,786.5Zm-.514.6a.7.7,0,0,0,.082-.249,2.606,2.606,0,0,0,0-.708.688.688,0,0,0-.084-.25.389.389,0,0,0-.165-.154.612.612,0,0,0-.274-.052.622.622,0,0,0-.274.052.4.4,0,0,0-.169.156.69.69,0,0,0-.083.255,2.541,2.541,0,0,0-.022.348,2.624,2.624,0,0,0,.019.347.668.668,0,0,0,.083.25.394.394,0,0,0,.166.158.614.614,0,0,0,.28.055.623.623,0,0,0,.274-.053A.383.383,0,0,0,633.253,787.108Z" transform="translate(-629.642 -363.006)" fill="none"/>
                <path id="Trazado_292" data-name="Trazado 292" d="M625.97,804.427a1.386,1.386,0,0,0-.217.017,2.121,2.121,0,0,0-.213.045,1.528,1.528,0,0,0-.168.056l-.127.055h-.024v-.28a2.151,2.151,0,0,1,.354-.084A2.551,2.551,0,0,1,626,804.2a2.028,2.028,0,0,1,.354.027,1.114,1.114,0,0,1,.274.084.528.528,0,0,1,.2.154.345.345,0,0,1,.067.211.357.357,0,0,1-.162.287.831.831,0,0,1-.389.157v.019a1.409,1.409,0,0,1,.2.041.743.743,0,0,1,.2.086.466.466,0,0,1,.15.147.392.392,0,0,1,.058.219.462.462,0,0,1-.069.247.669.669,0,0,1-.2.2.959.959,0,0,1-.315.137,1.721,1.721,0,0,1-.419.047,2.784,2.784,0,0,1-.445-.036,2.4,2.4,0,0,1-.371-.086v-.28h.028a1.924,1.924,0,0,0,.339.117,1.672,1.672,0,0,0,.425.056,1.194,1.194,0,0,0,.246-.026.55.55,0,0,0,.206-.084.446.446,0,0,0,.122-.129.344.344,0,0,0,.042-.178.309.309,0,0,0-.047-.177.321.321,0,0,0-.132-.109.668.668,0,0,0-.2-.055,1.932,1.932,0,0,0-.25-.015h-.17v-.221h.133a.982.982,0,0,0,.44-.085.267.267,0,0,0,.169-.247.2.2,0,0,0-.044-.128.321.321,0,0,0-.112-.086.631.631,0,0,0-.169-.048A1.378,1.378,0,0,0,625.97,804.427Z" transform="translate(-625.14 -377.637)" fill="none"/>
                <path id="Trazado_293" data-name="Trazado 293" d="M634.183,806.342h-1.456v-.2h.541v-1.327h-.541v-.181a1.3,1.3,0,0,0,.452-.058.248.248,0,0,0,.164-.218h.311v1.784h.529Z" transform="translate(-630.226 -377.761)" fill="none"/>
              </g>
              <rect id="Rectángulo_19" data-name="Rectángulo 19" width="20.109" height="0.431" transform="translate(465.7 172.665)" fill="none"/>
              <rect id="Rectángulo_20" data-name="Rectángulo 20" width="20.109" height="0.431" transform="translate(559.175 172.665)" fill="none"/>
              <rect id="Rectángulo_23" data-name="Rectángulo 23" width="11.834" height="0.431" transform="translate(446.09 289.752)" fill="none"/>
              <rect id="Rectángulo_24" data-name="Rectángulo 24" width="11.834" height="0.431" transform="translate(499.036 289.752)" fill="none"/>
              <rect id="Rectángulo_26" data-name="Rectángulo 26" width="11.834" height="0.431" transform="translate(446.09 431.227)" fill="none"/>
              <rect id="Rectángulo_27" data-name="Rectángulo 27" width="11.834" height="0.431" transform="translate(499.036 431.227)" fill="none"/>
              <rect id="Rectángulo_29" data-name="Rectángulo 29" width="21.673" height="0.431" transform="translate(501.14 308.472)" fill="none"/>
              <rect id="Rectángulo_30" data-name="Rectángulo 30" width="21.673" height="0.431" transform="translate(594.771 308.472)" fill="none"/>
              <rect id="Rectángulo_33-2" data-name="Rectángulo 33" width="13.307" height="0.431" transform="translate(517.375 269.882)" fill="none"/>
              <rect id="Rectángulo_35" data-name="Rectángulo 35" width="13.307" height="0.431" transform="translate(517.375 427.322)" fill="none"/>
              <rect id="Rectángulo_39" data-name="Rectángulo 39" width="42.389" height="0.431" transform="translate(542.426 435.318)" fill="none"/>
              <rect id="Rectángulo_40" data-name="Rectángulo 40" width="5.163" height="0.431" transform="translate(369.465 439.569)" fill="none"/>
              <rect id="Rectángulo_41" data-name="Rectángulo 41" width="18.04" height="0.431" transform="translate(471.639 212.031)" fill="none"/>
              <rect id="Rectángulo_42" data-name="Rectángulo 42" width="26.285" height="0.431" transform="translate(476.2 192.005)" fill="none"/>
              <rect id="Rectángulo_43" data-name="Rectángulo 43" width="27.208" height="0.431" transform="translate(591.45 192.005)" fill="none"/>
              <g id="Grupo_4" data-name="Grupo 4">
                <path id="Trazado_300" data-name="Trazado 300" d="M0,0H40.234V443.185H0Z" fill="none"/>
                <rect id="Rectángulo_51" data-name="Rectángulo 51" width="84.271" height="4.898" transform="translate(0 438.286)" fill="none"/>
                <rect id="Rectángulo_52" data-name="Rectángulo 52" width="84.271" height="4.898" transform="translate(0 433.096)" fill="none"/>
                <g id="Grupo_396" data-name="Grupo 396" transform="translate(8.493)">
                  <rect id="Rectángulo_5-2" data-name="Rectángulo 5" width="29.98" height="9.016" transform="translate(0 39.994)" fill="none"/>
                  <rect id="Rectángulo_6" data-name="Rectángulo 6" width="29.98" height="9.373" transform="translate(0 13.106)" fill="none"/>
                  <rect id="Rectángulo_7" data-name="Rectángulo 7" width="29.98" height="8.777" transform="translate(0 31.217)" fill="none"/>
                  <rect id="Rectángulo_8" data-name="Rectángulo 8" width="29.98" height="8.738" transform="translate(0 22.479)" fill="none"/>
                  <rect id="Rectángulo_9" data-name="Rectángulo 9" width="29.98" height="13.106" fill="none"/>
                  <rect id="Rectángulo_207" data-name="Rectángulo 207" width="8.653" height="3.336" rx="1" transform="translate(2.035 17.554)" fill="none"/>
                  <rect id="Rectángulo_214" data-name="Rectángulo 214" width="6.331" height="3.336" rx="1" transform="translate(6.227 25.101)" fill="none"/>
                  <rect id="Rectángulo_215" data-name="Rectángulo 215" width="6.331" height="3.336" rx="1" transform="translate(1.451 5.821)" fill="none"/>
                  <rect id="Rectángulo_216" data-name="Rectángulo 216" width="11.887" height="3.336" rx="1" transform="translate(6.227 34.632)" fill="none"/>
                  <rect id="Rectángulo_217" data-name="Rectángulo 217" width="5.943" height="3.336" rx="1" transform="translate(1.839 42.814)" fill="none"/>
                  <rect id="Rectángulo_218" data-name="Rectángulo 218" width="1.691" height="3.336" rx="0.846" transform="translate(3.12 50.995)" fill="none"/>
                  <rect id="Rectángulo_219" data-name="Rectángulo 219" width="5.112" height="3.336" rx="1" transform="translate(4.838 69.185)" fill="none"/>
                  <rect id="Rectángulo_220" data-name="Rectángulo 220" width="5.112" height="3.336" rx="1" transform="translate(4.838 60.448)" fill="none"/>
                  <rect id="Rectángulo_221" data-name="Rectángulo 221" width="5.112" height="3.336" rx="1" transform="translate(6.227 77.923)" fill="none"/>
                  <rect id="Rectángulo_222" data-name="Rectángulo 222" width="1.457" height="3.336" rx="0.728" transform="translate(4.11 77.923)" fill="none"/>
                  <rect id="Rectángulo_223" data-name="Rectángulo 223" width="1.457" height="3.336" rx="0.728" transform="translate(4.11 34.275)" fill="none"/>
                  <rect id="Rectángulo_224" data-name="Rectángulo 224" width="1.457" height="3.336" rx="0.728" transform="translate(4.11 86.66)" fill="none"/>
                  <rect id="Rectángulo_225" data-name="Rectángulo 225" width="1.457" height="3.336" rx="0.728" transform="translate(4.11 95.398)" fill="none"/>
                  <rect id="Rectángulo_226" data-name="Rectángulo 226" width="1.457" height="3.336" rx="0.728" transform="translate(4.11 104.135)" fill="none"/>
                  <rect id="Rectángulo_227" data-name="Rectángulo 227" width="1.457" height="3.336" rx="0.728" transform="translate(4.11 112.873)" fill="none"/>
                  <rect id="Rectángulo_228" data-name="Rectángulo 228" width="1.457" height="3.336" rx="0.728" transform="translate(4.11 121.61)" fill="none"/>
                  <rect id="Rectángulo_229" data-name="Rectángulo 229" width="1.457" height="3.336" rx="0.728" transform="translate(4.11 130.348)" fill="none"/>
                  <rect id="Rectángulo_230" data-name="Rectángulo 230" width="1.457" height="3.336" rx="0.728" transform="translate(4.11 139.085)" fill="none"/>
                  <rect id="Rectángulo_231" data-name="Rectángulo 231" width="1.457" height="3.336" rx="0.728" transform="translate(4.11 147.823)" fill="none"/>
                  <rect id="Rectángulo_232" data-name="Rectángulo 232" width="1.457" height="3.336" rx="0.728" transform="translate(4.11 156.561)" fill="none"/>
                  <rect id="Rectángulo_233" data-name="Rectángulo 233" width="1.457" height="3.336" rx="0.728" transform="translate(4.11 165.298)" fill="none"/>
                  <rect id="Rectángulo_234" data-name="Rectángulo 234" width="1.457" height="3.336" rx="0.728" transform="translate(4.11 174.036)" fill="none"/>
                  <rect id="Rectángulo_235" data-name="Rectángulo 235" width="1.457" height="3.336" rx="0.728" transform="translate(4.11 182.773)" fill="none"/>
                  <rect id="Rectángulo_236" data-name="Rectángulo 236" width="1.457" height="3.336" rx="0.728" transform="translate(4.11 191.511)" fill="none"/>
                  <rect id="Rectángulo_237" data-name="Rectángulo 237" width="1.457" height="3.336" rx="0.728" transform="translate(4.11 200.248)" fill="none"/>
                  <rect id="Rectángulo_238" data-name="Rectángulo 238" width="1.457" height="3.336" rx="0.728" transform="translate(4.11 208.986)" fill="none"/>
                  <rect id="Rectángulo_239" data-name="Rectángulo 239" width="1.457" height="3.336" rx="0.728" transform="translate(4.11 217.723)" fill="none"/>
                  <rect id="Rectángulo_240" data-name="Rectángulo 240" width="1.457" height="3.336" rx="0.728" transform="translate(4.11 226.461)" fill="none"/>
                  <rect id="Rectángulo_241" data-name="Rectángulo 241" width="1.457" height="3.336" rx="0.728" transform="translate(4.11 235.198)" fill="none"/>
                  <rect id="Rectángulo_242" data-name="Rectángulo 242" width="1.457" height="3.336" rx="0.728" transform="translate(4.11 243.936)" fill="none"/>
                  <rect id="Rectángulo_243" data-name="Rectángulo 243" width="1.457" height="3.336" rx="0.728" transform="translate(4.11 252.673)" fill="none"/>
                  <rect id="Rectángulo_244" data-name="Rectángulo 244" width="1.457" height="3.336" rx="0.728" transform="translate(4.11 261.411)" fill="none"/>
                  <rect id="Rectángulo_245" data-name="Rectángulo 245" width="1.457" height="3.336" rx="0.728" transform="translate(4.11 270.148)" fill="none"/>
                  <rect id="Rectángulo_246" data-name="Rectángulo 246" width="1.457" height="3.336" rx="0.728" transform="translate(4.11 278.886)" fill="none"/>
                  <rect id="Rectángulo_247" data-name="Rectángulo 247" width="1.457" height="3.336" rx="0.728" transform="translate(4.11 287.623)" fill="none"/>
                  <rect id="Rectángulo_248" data-name="Rectángulo 248" width="1.457" height="3.336" rx="0.728" transform="translate(4.11 296.361)" fill="none"/>
                  <rect id="Rectángulo_249" data-name="Rectángulo 249" width="1.457" height="3.336" rx="0.728" transform="translate(4.11 305.098)" fill="none"/>
                  <rect id="Rectángulo_250" data-name="Rectángulo 250" width="1.457" height="3.336" rx="0.728" transform="translate(4.11 313.836)" fill="none"/>
                  <rect id="Rectángulo_251" data-name="Rectángulo 251" width="1.457" height="3.336" rx="0.728" transform="translate(4.11 322.574)" fill="none"/>
                  <rect id="Rectángulo_252" data-name="Rectángulo 252" width="1.457" height="3.336" rx="0.728" transform="translate(4.11 331.311)" fill="none"/>
                  <rect id="Rectángulo_253" data-name="Rectángulo 253" width="1.457" height="3.336" rx="0.728" transform="translate(4.11 340.049)" fill="none"/>
                  <rect id="Rectángulo_254" data-name="Rectángulo 254" width="1.457" height="3.336" rx="0.728" transform="translate(4.11 348.786)" fill="none"/>
                  <rect id="Rectángulo_255" data-name="Rectángulo 255" width="1.457" height="3.336" rx="0.728" transform="translate(4.11 357.524)" fill="none"/>
                  <rect id="Rectángulo_256" data-name="Rectángulo 256" width="1.457" height="3.336" rx="0.728" transform="translate(4.11 366.261)" fill="none"/>
                  <rect id="Rectángulo_257" data-name="Rectángulo 257" width="1.457" height="3.336" rx="0.728" transform="translate(4.11 374.999)" fill="none"/>
                  <rect id="Rectángulo_258" data-name="Rectángulo 258" width="1.457" height="3.336" rx="0.728" transform="translate(4.11 383.736)" fill="none"/>
                  <rect id="Rectángulo_259" data-name="Rectángulo 259" width="1.457" height="3.336" rx="0.728" transform="translate(1.587 401.211)" fill="none"/>
                  <rect id="Rectángulo_260" data-name="Rectángulo 260" width="1.457" height="3.336" rx="0.728" transform="translate(1.587 409.949)" fill="none"/>
                  <rect id="Rectángulo_261" data-name="Rectángulo 261" width="1.457" height="3.336" rx="0.728" transform="translate(1.587 418.686)" fill="none"/>
                  <rect id="Rectángulo_262" data-name="Rectángulo 262" width="1.457" height="3.336" rx="0.728" transform="translate(1.587 427.424)" fill="none"/>
                  <rect id="Rectángulo_263" data-name="Rectángulo 263" width="5.112" height="3.336" rx="1" transform="translate(6.227 86.66)" fill="none"/>
                  <rect id="Rectángulo_264" data-name="Rectángulo 264" width="5.112" height="3.336" rx="1" transform="translate(6.227 95.398)" fill="none"/>
                  <rect id="Rectángulo_265" data-name="Rectángulo 265" width="5.112" height="3.336" rx="1" transform="translate(6.227 104.135)" fill="none"/>
                  <rect id="Rectángulo_266" data-name="Rectángulo 266" width="6.696" height="3.336" rx="1" transform="translate(6.227 112.873)" fill="none"/>
                  <rect id="Rectángulo_267" data-name="Rectángulo 267" width="6.143" height="3.336" rx="1" transform="translate(6.227 121.61)" fill="none"/>
                  <rect id="Rectángulo_268" data-name="Rectángulo 268" width="5.112" height="3.336" rx="1" transform="translate(6.227 130.348)" fill="none"/>
                  <rect id="Rectángulo_269" data-name="Rectángulo 269" width="8.129" height="3.336" rx="1" transform="translate(6.227 139.085)" fill="none"/>
                  <rect id="Rectángulo_270" data-name="Rectángulo 270" width="6.143" height="3.336" rx="1" transform="translate(6.227 147.823)" fill="none"/>
                  <rect id="Rectángulo_271" data-name="Rectángulo 271" width="10.196" height="3.336" rx="1" transform="translate(6.227 156.561)" fill="none"/>
                  <rect id="Rectángulo_272" data-name="Rectángulo 272" width="9.675" height="3.336" rx="1" transform="translate(6.227 165.298)" fill="none"/>
                  <rect id="Rectángulo_273" data-name="Rectángulo 273" width="4.255" height="3.336" rx="1" transform="translate(6.227 174.036)" fill="none"/>
                  <rect id="Rectángulo_274" data-name="Rectángulo 274" width="4.564" height="3.336" rx="1" transform="translate(6.227 182.773)" fill="none"/>
                  <rect id="Rectángulo_275" data-name="Rectángulo 275" width="3.181" height="3.336" rx="1" transform="translate(6.227 191.511)" fill="none"/>
                  <rect id="Rectángulo_276" data-name="Rectángulo 276" width="3.62" height="3.336" rx="1" transform="translate(6.227 200.248)" fill="none"/>
                  <rect id="Rectángulo_277" data-name="Rectángulo 277" width="4.483" height="3.336" rx="1" transform="translate(6.227 208.986)" fill="none"/>
                  <rect id="Rectángulo_278" data-name="Rectángulo 278" width="8.47" height="3.336" rx="1" transform="translate(6.227 217.723)" fill="none"/>
                  <rect id="Rectángulo_279" data-name="Rectángulo 279" width="3.848" height="3.336" rx="1" transform="translate(6.227 226.461)" fill="none"/>
                  <rect id="Rectángulo_280" data-name="Rectángulo 280" width="3.848" height="3.336" rx="1" transform="translate(6.227 235.198)" fill="none"/>
                  <rect id="Rectángulo_281" data-name="Rectángulo 281" width="6.208" height="3.336" rx="1" transform="translate(6.227 243.936)" fill="none"/>
                  <rect id="Rectángulo_282" data-name="Rectángulo 282" width="7.64" height="3.336" rx="1" transform="translate(6.227 252.673)" fill="none"/>
                  <rect id="Rectángulo_283" data-name="Rectángulo 283" width="6.208" height="3.336" rx="1" transform="translate(6.227 261.411)" fill="none"/>
                  <rect id="Rectángulo_284" data-name="Rectángulo 284" width="10.163" height="3.336" rx="1" transform="translate(6.227 270.148)" fill="none"/>
                  <rect id="Rectángulo_285" data-name="Rectángulo 285" width="6.501" height="3.336" rx="1" transform="translate(6.227 278.886)" fill="none"/>
                  <rect id="Rectángulo_286" data-name="Rectángulo 286" width="7.233" height="3.336" rx="1" transform="translate(6.227 287.623)" fill="none"/>
                  <rect id="Rectángulo_287" data-name="Rectángulo 287" width="4.418" height="3.336" rx="1" transform="translate(6.227 296.361)" fill="none"/>
                  <rect id="Rectángulo_288" data-name="Rectángulo 288" width="5.112" height="3.336" rx="1" transform="translate(6.227 305.098)" fill="none"/>
                  <rect id="Rectángulo_289" data-name="Rectángulo 289" width="4.271" height="3.336" rx="1" transform="translate(6.227 313.836)" fill="none"/>
                  <rect id="Rectángulo_290" data-name="Rectángulo 290" width="5.801" height="3.336" rx="1" transform="translate(6.227 322.574)" fill="none"/>
                  <rect id="Rectángulo_291" data-name="Rectángulo 291" width="7.103" height="3.336" rx="1" transform="translate(6.227 331.311)" fill="none"/>
                  <rect id="Rectángulo_292" data-name="Rectángulo 292" width="4.418" height="3.336" rx="1" transform="translate(6.227 340.049)" fill="none"/>
                  <rect id="Rectángulo_293" data-name="Rectángulo 293" width="4.418" height="3.336" rx="1" transform="translate(6.227 348.786)" fill="none"/>
                  <rect id="Rectángulo_294" data-name="Rectángulo 294" width="16.201" height="3.336" rx="1" transform="translate(6.227 357.524)" fill="none"/>
                  <rect id="Rectángulo_295" data-name="Rectángulo 295" width="7.412" height="3.336" rx="1" transform="translate(6.227 366.261)" fill="none"/>
                  <rect id="Rectángulo_296" data-name="Rectángulo 296" width="5.112" height="3.336" rx="1" transform="translate(6.227 374.999)" fill="none"/>
                  <rect id="Rectángulo_297" data-name="Rectángulo 297" width="4.287" height="3.336" rx="1" transform="translate(6.227 383.736)" fill="none"/>
                  <rect id="Rectángulo_298" data-name="Rectángulo 298" width="2.79" height="3.336" rx="1" transform="translate(6.227 392.474)" fill="none"/>
                  <rect id="Rectángulo_299" data-name="Rectángulo 299" width="8.919" height="3.336" rx="1" transform="translate(3.678 401.211)" fill="none"/>
                  <rect id="Rectángulo_300" data-name="Rectángulo 300" width="7.661" height="3.336" rx="1" transform="translate(3.678 409.949)" fill="none"/>
                  <rect id="Rectángulo_301" data-name="Rectángulo 301" width="7.742" height="3.336" rx="1" transform="translate(3.597 418.686)" fill="none"/>
                  <rect id="Rectángulo_302" data-name="Rectángulo 302" width="7.661" height="3.336" rx="1" transform="translate(3.678 427.424)" fill="none"/>
                </g>
                <g id="Grupo_397" data-name="Grupo 397" transform="translate(2.543 1.347)">
                  <rect id="Rectángulo_337" data-name="Rectángulo 337" width="3.659" height="13.76" rx="1" fill="none"/>
                  <rect id="Rectángulo_338" data-name="Rectángulo 338" width="3.659" height="13.76" rx="1" transform="translate(0 28.22)" fill="none"/>
                  <rect id="Rectángulo_339" data-name="Rectángulo 339" width="3.659" height="13.76" rx="1" transform="translate(0 56.44)" fill="none"/>
                  <rect id="Rectángulo_340" data-name="Rectángulo 340" width="3.659" height="13.76" rx="1" transform="translate(0 84.659)" fill="none"/>
                  <rect id="Rectángulo_341" data-name="Rectángulo 341" width="3.659" height="13.76" rx="1" transform="translate(0 112.879)" fill="none"/>
                  <rect id="Rectángulo_342" data-name="Rectángulo 342" width="3.659" height="13.76" rx="1" transform="translate(0 415.653)" fill="none"/>
                </g>
              </g>
              <rect id="Rectángulo_72" data-name="Rectángulo 72" width="19.416" height="0.658" transform="translate(5.358 435.369)" fill="none"/>
              <g id="Grupo_395" data-name="Grupo 395" transform="translate(200.46 10.387)">
                <rect id="Rectángulo_13" data-name="Rectángulo 13" width="77.207" height="3.308" rx="1" transform="translate(3.295)" fill="none"/>
                <rect id="Rectángulo_14" data-name="Rectángulo 14" width="43.468" height="3.308" rx="1" transform="translate(0 7.56)" fill="none"/>
                <rect id="Rectángulo_15" data-name="Rectángulo 15" width="10.985" height="3.308" rx="1" transform="translate(89.447 7.56)" fill="none"/>
                <rect id="Rectángulo_16" data-name="Rectángulo 16" width="10.985" height="3.308" rx="1" transform="translate(90.389 7.56)" fill="none"/>
                <rect id="Rectángulo_17" data-name="Rectángulo 17" width="10.985" height="3.308" rx="1" transform="translate(55.591 22.717)" fill="none"/>
                <rect id="Rectángulo_18" data-name="Rectángulo 18" width="10.985" height="3.308" rx="1" transform="translate(79.247 29.858)" fill="none"/>
                <rect id="Rectángulo_19-2" data-name="Rectángulo 19" width="10.985" height="3.308" rx="1" transform="translate(412.754 60.484)" fill="none"/>
                <rect id="Rectángulo_20-2" data-name="Rectángulo 20" width="10.985" height="3.308" rx="1" transform="translate(27.854 52.924)" fill="none"/>
                <rect id="Rectángulo_21" data-name="Rectángulo 21" width="18.203" height="3.308" rx="1" transform="translate(87.877 60.484)" fill="none"/>
                <rect id="Rectángulo_22" data-name="Rectángulo 22" width="32.876" height="3.308" rx="1" transform="translate(50.138 60.484)" fill="none"/>
                <rect id="Rectángulo_23-2" data-name="Rectángulo 23" width="36.877" height="3.308" rx="1" transform="translate(26.599 75.605)" fill="none"/>
                <rect id="Rectángulo_24-2" data-name="Rectángulo 24" width="36.877" height="3.308" rx="1" transform="translate(50.726 143.649)" fill="none"/>
                <rect id="Rectángulo_25" data-name="Rectángulo 25" width="36.877" height="3.308" rx="1" transform="translate(50.726 189.012)" fill="none"/>
                <rect id="Rectángulo_26-2" data-name="Rectángulo 26" width="36.877" height="3.308" rx="1" transform="translate(50.726 181.452)" fill="none"/>
                <rect id="Rectángulo_27-2" data-name="Rectángulo 27" width="10.985" height="3.308" rx="1" transform="translate(91.488 45.363)" fill="none"/>
                <rect id="Rectángulo_28" data-name="Rectángulo 28" width="19.89" height="3.308" rx="1" transform="translate(111.494 52.924)" fill="none"/>
                <rect id="Rectángulo_29-2" data-name="Rectángulo 29" width="19.89" height="3.308" rx="1" transform="translate(108.141 83.165)" fill="none"/>
                <rect id="Rectángulo_30-2" data-name="Rectángulo 30" width="19.89" height="3.308" rx="1" transform="translate(86.661 204.133)" fill="none"/>
                <rect id="Rectángulo_31" data-name="Rectángulo 31" width="37.427" height="3.308" rx="1" transform="translate(27.108 332.662)" fill="none"/>
                <rect id="Rectángulo_32-2" data-name="Rectángulo 32" width="24.559" height="3.308" rx="1" transform="translate(39.506 378.025)" fill="none"/>
                <rect id="Rectángulo_33-3" data-name="Rectángulo 33" width="24.559" height="3.308" rx="1" transform="translate(84.465 362.904)" fill="none"/>
                <rect id="Rectángulo_34" data-name="Rectángulo 34" width="15.143" height="3.308" rx="1" transform="translate(25.971 362.904)" fill="none"/>
                <rect id="Rectángulo_35-2" data-name="Rectángulo 35" width="19.89" height="3.308" rx="1" transform="translate(23.578 181.452)" fill="none"/>
                <rect id="Rectángulo_36" data-name="Rectángulo 36" width="19.89" height="3.308" rx="1" transform="translate(110.985 181.452)" fill="none"/>
                <rect id="Rectángulo_37" data-name="Rectángulo 37" width="19.89" height="3.308" rx="1" transform="translate(23.578 234.375)" fill="none"/>
                <rect id="Rectángulo_38" data-name="Rectángulo 38" width="19.89" height="3.308" rx="1" transform="translate(41.468 279.738)" fill="none"/>
                <rect id="Rectángulo_39-2" data-name="Rectángulo 39" width="38.407" height="3.308" rx="1" transform="translate(50.098 52.924)" fill="none"/>
                <rect id="Rectángulo_40-2" data-name="Rectángulo 40" width="43.468" height="3.308" rx="1" transform="translate(45.038 7.56)" fill="none"/>
                <rect id="Rectángulo_41-2" data-name="Rectángulo 41" width="43.468" height="3.308" rx="1" transform="translate(68.753 22.752)" fill="none"/>
                <rect id="Rectángulo_42-2" data-name="Rectángulo 42" width="38.368" height="3.308" rx="1" transform="translate(50.138 45.363)" fill="none"/>
                <rect id="Rectángulo_43-2" data-name="Rectángulo 43" width="48.019" height="3.308" rx="1" transform="translate(163.594 60.484)" fill="none"/>
                <rect id="Rectángulo_44" data-name="Rectángulo 44" width="67.007" height="3.308" rx="1" transform="translate(457.906 60.484)" fill="none"/>
                <rect id="Rectángulo_45" data-name="Rectángulo 45" width="107.258" height="3.308" rx="1" transform="translate(75.481 90.726)" fill="none"/>
                <rect id="Rectángulo_46" data-name="Rectángulo 46" width="74.147" height="3.308" rx="1" transform="translate(75.481 98.286)" fill="none"/>
                <rect id="Rectángulo_47" data-name="Rectángulo 47" width="47.43" height="3.308" rx="1" transform="translate(123.068 105.847)" fill="none"/>
                <rect id="Rectángulo_48" data-name="Rectángulo 48" width="59.357" height="3.308" rx="1" transform="translate(206.689 113.407)" fill="none"/>
                <rect id="Rectángulo_49" data-name="Rectángulo 49" width="109.219" height="3.308" rx="1" transform="translate(50.059 211.694)" fill="none"/>
                <rect id="Rectángulo_50" data-name="Rectángulo 50" width="74.618" height="3.308" rx="1" transform="translate(50.059 219.254)" fill="none"/>
                <rect id="Rectángulo_51-2" data-name="Rectángulo 51" width="74.618" height="3.308" rx="1" transform="translate(94.076 189.012)" fill="none"/>
                <rect id="Rectángulo_52-2" data-name="Rectángulo 52" width="65.477" height="3.308" rx="1" transform="translate(87.367 241.936)" fill="none"/>
                <rect id="Rectángulo_53" data-name="Rectángulo 53" width="41.703" height="3.308" rx="1" transform="translate(130.522 264.617)" fill="none"/>
                <rect id="Rectángulo_54" data-name="Rectángulo 54" width="41.703" height="3.308" rx="1" transform="translate(104.119 287.299)" fill="none"/>
                <rect id="Rectángulo_55" data-name="Rectángulo 55" width="80.365" height="3.308" rx="1" transform="translate(179.895 302.42)" fill="none"/>
                <rect id="Rectángulo_56" data-name="Rectángulo 56" width="124.814" height="3.308" rx="1" transform="translate(64.437 309.98)" fill="none"/>
                <rect id="Rectángulo_57" data-name="Rectángulo 57" width="124.814" height="3.308" rx="1" transform="translate(115.213 355.343)" fill="none"/>
                <rect id="Rectángulo_58" data-name="Rectángulo 58" width="86.691" height="3.308" rx="0.964" transform="translate(83.415 385.585)" fill="none"/>
                <rect id="Rectángulo_59" data-name="Rectángulo 59" width="86.691" height="3.308" rx="1" transform="translate(83.415 370.464)" fill="none"/>
                <rect id="Rectángulo_60" data-name="Rectángulo 60" width="41.703" height="3.308" rx="1" transform="translate(222.166 264.617)" fill="none"/>
                <rect id="Rectángulo_61" data-name="Rectángulo 61" width="41.703" height="3.308" rx="1" transform="translate(297.49 264.617)" fill="none"/>
                <rect id="Rectángulo_62" data-name="Rectángulo 62" width="41.703" height="3.308" rx="1" transform="translate(297.49 272.178)" fill="none"/>
                <rect id="Rectángulo_63" data-name="Rectángulo 63" width="41.703" height="3.308" rx="1" transform="translate(222.166 272.178)" fill="none"/>
                <rect id="Rectángulo_64" data-name="Rectángulo 64" width="65.222" height="3.308" rx="1" transform="translate(407.906 189.012)" fill="none"/>
                <rect id="Rectángulo_65" data-name="Rectángulo 65" width="122.401" height="3.308" rx="1" transform="translate(90.232 120.968)" fill="none"/>
                <rect id="Rectángulo_66" data-name="Rectángulo 66" width="122.401" height="3.308" rx="1" transform="translate(77.187 136.089)" fill="none"/>
                <rect id="Rectángulo_67" data-name="Rectángulo 67" width="28.913" height="3.308" rx="1" transform="translate(202.393 105.847)" fill="none"/>
                <rect id="Rectángulo_68" data-name="Rectángulo 68" width="28.913" height="3.308" rx="1" transform="translate(237.702 105.847)" fill="none"/>
                <rect id="Rectángulo_69" data-name="Rectángulo 69" width="53.707" height="3.308" rx="1" transform="translate(275.834 105.847)" fill="none"/>
                <rect id="Rectángulo_70" data-name="Rectángulo 70" width="53.708" height="3.308" rx="1" transform="translate(51.765 234.375)" fill="none"/>
                <rect id="Rectángulo_71" data-name="Rectángulo 71" width="53.708" height="3.308" rx="1" transform="translate(112.122 249.496)" fill="none"/>
                <rect id="Rectángulo_72-2" data-name="Rectángulo 72" width="53.708" height="3.308" rx="1" transform="translate(112.122 257.057)" fill="none"/>
                <rect id="Rectángulo_73" data-name="Rectángulo 73" width="53.708" height="3.308" rx="1" transform="translate(51.765 355.343)" fill="none"/>
                <rect id="Rectángulo_74" data-name="Rectángulo 74" width="35.759" height="3.308" rx="1" transform="translate(39.506 370.464)" fill="none"/>
                <rect id="Rectángulo_75" data-name="Rectángulo 75" width="35.759" height="3.308" rx="1" transform="translate(39.506 385.585)" fill="none"/>
                <rect id="Rectángulo_76" data-name="Rectángulo 76" width="43.468" height="3.308" rx="1" transform="translate(4.865 15.151)" fill="none"/>
                <rect id="Rectángulo_77" data-name="Rectángulo 77" width="43.468" height="3.308" rx="1" transform="translate(56.963 15.18)" fill="none"/>
                <rect id="Rectángulo_78" data-name="Rectángulo 78" width="20.714" height="3.308" rx="1" transform="translate(1.02 22.823)" fill="none"/>
                <rect id="Rectángulo_79" data-name="Rectángulo 79" width="24.166" height="3.308" rx="1" transform="translate(26.756 22.859)" fill="none"/>
                <rect id="Rectángulo_137" data-name="Rectángulo 137" width="29.502" height="3.308" rx="1" transform="translate(75.481 105.847)" fill="none"/>
                <rect id="Rectángulo_138" data-name="Rectángulo 138" width="29.502" height="3.308" rx="1" transform="translate(50.726 120.968)" fill="none"/>
                <rect id="Rectángulo_139" data-name="Rectángulo 139" width="29.502" height="3.308" rx="1" transform="translate(75.481 128.528)" fill="none"/>
                <rect id="Rectángulo_140" data-name="Rectángulo 140" width="35.23" height="3.308" rx="1" transform="translate(205.336 136.089)" fill="none"/>
                <rect id="Rectángulo_141" data-name="Rectángulo 141" width="35.23" height="3.308" rx="1" transform="translate(53.825 173.891)" fill="none"/>
                <rect id="Rectángulo_142" data-name="Rectángulo 142" width="54.767" height="3.308" rx="1" transform="translate(160.063 204.133)" fill="none"/>
                <rect id="Rectángulo_143" data-name="Rectángulo 143" width="35.23" height="3.308" rx="1" transform="translate(113.77 234.375)" fill="none"/>
                <rect id="Rectángulo_144" data-name="Rectángulo 144" width="35.23" height="3.308" rx="1" transform="translate(50.059 224.708)" fill="none"/>
                <rect id="Rectángulo_145" data-name="Rectángulo 145" width="35.23" height="3.308" rx="1" transform="translate(50.059 287.299)" fill="none"/>
                <rect id="Rectángulo_146" data-name="Rectángulo 146" width="35.23" height="3.308" rx="1" transform="translate(151.373 287.299)" fill="none"/>
                <rect id="Rectángulo_147" data-name="Rectángulo 147" width="27.109" height="3.308" rx="1" transform="translate(100.157 264.617)" fill="none"/>
                <rect id="Rectángulo_148" data-name="Rectángulo 148" width="27.109" height="3.308" rx="1" transform="translate(175.011 264.617)" fill="none"/>
                <rect id="Rectángulo_149" data-name="Rectángulo 149" width="24.598" height="3.308" rx="1" transform="translate(268.38 264.617)" fill="none"/>
                <rect id="Rectángulo_150" data-name="Rectángulo 150" width="24.598" height="3.308" rx="1" transform="translate(268.38 272.178)" fill="none"/>
                <rect id="Rectángulo_151" data-name="Rectángulo 151" width="24.598" height="3.308" rx="1" transform="translate(342.762 264.617)" fill="none"/>
                <rect id="Rectángulo_152" data-name="Rectángulo 152" width="24.598" height="3.308" rx="1" transform="translate(342.762 272.178)" fill="none"/>
                <rect id="Rectángulo_153" data-name="Rectángulo 153" width="35.23" height="3.308" rx="1" transform="translate(75.54 257.057)" fill="none"/>
                <rect id="Rectángulo_154" data-name="Rectángulo 154" width="35.23" height="3.308" rx="1" transform="translate(75.54 249.496)" fill="none"/>
                <rect id="Rectángulo_155" data-name="Rectángulo 155" width="35.23" height="3.308" rx="1" transform="translate(50.059 241.936)" fill="none"/>
                <rect id="Rectángulo_156" data-name="Rectángulo 156" width="14.516" height="3.308" rx="1" transform="translate(92.036 181.452)" fill="none"/>
                <rect id="Rectángulo_157" data-name="Rectángulo 157" width="20.283" height="3.308" rx="1" transform="translate(25.853 219.254)" fill="none"/>
                <rect id="Rectángulo_158" data-name="Rectángulo 158" width="35.23" height="3.308" rx="1" transform="translate(50.059 264.617)" fill="none"/>
                <rect id="Rectángulo_159" data-name="Rectángulo 159" width="35.23" height="3.308" rx="1" transform="translate(25.853 309.98)" fill="none"/>
                <rect id="Rectángulo_160" data-name="Rectángulo 160" width="35.23" height="3.308" rx="1" transform="translate(50.059 317.541)" fill="none"/>
                <rect id="Rectángulo_161" data-name="Rectángulo 161" width="127.56" height="3.308" rx="1" transform="translate(50.059 325.101)" fill="none"/>
                <rect id="Rectángulo_162" data-name="Rectángulo 162" width="35.23" height="3.308" rx="1" transform="translate(183.131 325.101)" fill="none"/>
                <rect id="Rectángulo_163" data-name="Rectángulo 163" width="35.23" height="3.308" rx="1" transform="translate(68.89 332.662)" fill="none"/>
                <rect id="Rectángulo_164" data-name="Rectángulo 164" width="22.558" height="3.308" rx="1" transform="translate(25.853 325.101)" fill="none"/>
                <rect id="Rectángulo_165" data-name="Rectángulo 165" width="22.558" height="3.308" rx="1" transform="translate(1.334 340.222)" fill="none"/>
                <rect id="Rectángulo_166" data-name="Rectángulo 166" width="22.558" height="3.308" rx="1" transform="translate(1.334 400.706)" fill="none"/>
                <rect id="Rectángulo_170" data-name="Rectángulo 170" width="35.23" height="3.308" rx="1" transform="translate(45.175 362.904)" fill="none"/>
                <rect id="Rectángulo_171" data-name="Rectángulo 171" width="84.465" height="3.308" rx="1" transform="translate(112.966 362.904)" fill="none"/>
                <rect id="Rectángulo_172" data-name="Rectángulo 172" width="84.465" height="3.308" rx="1" transform="translate(54.511 302.42)" fill="none"/>
                <rect id="Rectángulo_173" data-name="Rectángulo 173" width="84.465" height="3.308" rx="1" transform="translate(93.154 317.541)" fill="none"/>
                <rect id="Rectángulo_174" data-name="Rectángulo 174" width="35.23" height="3.308" rx="1" transform="translate(179.816 370.464)" fill="none"/>
                <rect id="Rectángulo_175" data-name="Rectángulo 175" width="35.23" height="3.308" rx="1" transform="translate(229.267 370.464)" fill="none"/>
                <rect id="Rectángulo_176" data-name="Rectángulo 176" width="35.23" height="3.308" rx="1" transform="translate(229.267 385.585)" fill="none"/>
                <rect id="Rectángulo_177" data-name="Rectángulo 177" width="8.239" height="3.308" rx="1" transform="translate(170.892 257.057)" fill="none"/>
                <rect id="Rectángulo_178" data-name="Rectángulo 178" width="8.239" height="3.308" rx="1" transform="translate(170.892 249.496)" fill="none"/>
                <rect id="Rectángulo_179" data-name="Rectángulo 179" width="8.239" height="3.308" rx="1" transform="translate(164.869 234.375)" fill="none"/>
                <rect id="Rectángulo_180" data-name="Rectángulo 180" width="35.23" height="3.308" rx="1" transform="translate(313.339 355.343)" fill="none"/>
                <rect id="Rectángulo_181" data-name="Rectángulo 181" width="35.23" height="3.308" rx="1" transform="translate(179.816 385.585)" fill="none"/>
                <rect id="Rectángulo_182" data-name="Rectángulo 182" width="83.013" height="3.308" rx="1" transform="translate(117.536 128.528)" fill="none"/>
                <rect id="Rectángulo_183" data-name="Rectángulo 183" width="20.714" height="3.308" rx="1" transform="translate(50.726 90.726)" fill="none"/>
                <rect id="Rectángulo_184" data-name="Rectángulo 184" width="20.714" height="3.308" rx="1" transform="translate(74.264 83.165)" fill="none"/>
                <rect id="Rectángulo_185" data-name="Rectángulo 185" width="20.714" height="3.308" rx="1" transform="translate(123.735 75.605)" fill="none"/>
                <rect id="Rectángulo_186" data-name="Rectángulo 186" width="20.714" height="3.308" rx="1" transform="translate(160.142 45.363)" fill="none"/>
                <rect id="Rectángulo_187" data-name="Rectángulo 187" width="20.714" height="3.308" rx="1" transform="translate(429.345 60.484)" fill="none"/>
                <rect id="Rectángulo_188" data-name="Rectángulo 188" width="20.714" height="3.308" rx="1" transform="translate(531.19 60.484)" fill="none"/>
                <rect id="Rectángulo_189" data-name="Rectángulo 189" width="16.399" height="3.308" rx="1" transform="translate(91.801 52.924)" fill="none"/>
                <rect id="Rectángulo_190" data-name="Rectángulo 190" width="16.399" height="3.308" rx="1" transform="translate(27.579 68.044)" fill="none"/>
                <rect id="Rectángulo_191" data-name="Rectángulo 191" width="20.714" height="3.308" rx="1" transform="translate(177.246 113.407)" fill="none"/>
                <rect id="Rectángulo_192" data-name="Rectángulo 192" width="20.714" height="3.308" rx="1" transform="translate(324.598 128.528)" fill="none"/>
                <rect id="Rectángulo_193" data-name="Rectángulo 193" width="20.714" height="3.308" rx="1" transform="translate(173.637 105.847)" fill="none"/>
                <rect id="Rectángulo_194" data-name="Rectángulo 194" width="82.699" height="3.308" rx="1" transform="translate(76.735 113.407)" fill="none"/>
                <rect id="Rectángulo_195" data-name="Rectángulo 195" width="20.714" height="3.308" rx="1" transform="translate(50.726 98.286)" fill="none"/>
                <rect id="Rectángulo_196" data-name="Rectángulo 196" width="20.714" height="3.308" rx="1" transform="translate(50.726 136.089)" fill="none"/>
                <rect id="Rectángulo_197" data-name="Rectángulo 197" width="20.714" height="3.308" rx="1" transform="translate(23.166 151.21)" fill="none"/>
                <rect id="Rectángulo_198" data-name="Rectángulo 198" width="20.714" height="3.308" rx="1" transform="translate(1.02 158.77)" fill="none"/>
                <rect id="Rectángulo_199" data-name="Rectángulo 199" width="20.714" height="3.308" rx="1" transform="translate(94.625 143.649)" fill="none"/>
                <rect id="Rectángulo_200" data-name="Rectángulo 200" width="20.714" height="3.308" rx="1" transform="translate(270.322 173.891)" fill="none"/>
                <rect id="Rectángulo_201" data-name="Rectángulo 201" width="20.714" height="3.308" rx="1" transform="translate(152.845 302.42)" fill="none"/>
                <rect id="Rectángulo_202" data-name="Rectángulo 202" width="20.714" height="3.308" rx="1" transform="translate(373.569 189.012)" fill="none"/>
                <rect id="Rectángulo_203" data-name="Rectángulo 203" width="20.714" height="3.308" rx="1" transform="translate(477.767 189.012)" fill="none"/>
                <rect id="Rectángulo_204" data-name="Rectángulo 204" width="20.714" height="3.308" rx="1" transform="translate(25.637 211.694)" fill="none"/>
                <rect id="Rectángulo_205" data-name="Rectángulo 205" width="50.922" height="3.308" rx="1" transform="translate(188.741 83.165)" fill="none"/>
                <rect id="Rectángulo_206" data-name="Rectángulo 206" width="44.881" height="3.308" rx="1" transform="translate(28.285 29.986)" fill="none"/>
                <rect id="Rectángulo_303" data-name="Rectángulo 303" width="44.881" height="3.308" rx="1" transform="translate(111.848 15.21)" fill="none"/>
                <rect id="Rectángulo_304" data-name="Rectángulo 304" width="78.227" height="3.308" rx="1" transform="translate(95.175 29.73)" fill="none"/>
                <rect id="Rectángulo_305" data-name="Rectángulo 305" width="116.36" height="3.308" rx="1" transform="translate(170.498 15.239)" fill="none"/>
                <rect id="Rectángulo_306" data-name="Rectángulo 306" width="67.713" height="3.308" rx="1" transform="translate(302.629 15.269)" fill="none"/>
                <rect id="Rectángulo_307" data-name="Rectángulo 307" width="36.727" height="3.308" rx="1" transform="translate(381.52 15.298)" fill="none"/>
                <rect id="Rectángulo_308" data-name="Rectángulo 308" width="20.714" height="3.308" rx="1" transform="translate(1.02 30.114)" fill="none"/>
                <rect id="Rectángulo_309" data-name="Rectángulo 309" width="20.714" height="3.308" rx="1" transform="translate(25.422 204.133)" fill="none"/>
                <rect id="Rectángulo_310" data-name="Rectángulo 310" width="20.714" height="3.308" rx="1" transform="translate(25.422 224.708)" fill="none"/>
                <rect id="Rectángulo_311" data-name="Rectángulo 311" width="44.488" height="3.308" rx="1" transform="translate(1.334 355.343)" fill="none"/>
                <rect id="Rectángulo_312" data-name="Rectángulo 312" width="44.488" height="3.308" rx="1" transform="translate(260.26 355.343)" fill="none"/>
                <rect id="Rectángulo_313" data-name="Rectángulo 313" width="42.075" height="3.308" rx="1" transform="translate(110.77 204.133)" fill="none"/>
                <rect id="Rectángulo_314" data-name="Rectángulo 314" width="20.714" height="3.308" rx="1" transform="translate(50.059 249.496)" fill="none"/>
                <rect id="Rectángulo_315" data-name="Rectángulo 315" width="20.714" height="3.308" rx="1" transform="translate(50.059 257.057)" fill="none"/>
                <rect id="Rectángulo_316" data-name="Rectángulo 316" width="20.714" height="3.308" rx="1" transform="translate(25.422 302.42)" fill="none"/>
                <rect id="Rectángulo_317" data-name="Rectángulo 317" width="20.714" height="3.308" rx="1" transform="translate(50.726 83.165)" fill="none"/>
                <rect id="Rectángulo_318" data-name="Rectángulo 318" width="20.714" height="3.308" rx="1" transform="translate(50.726 105.847)" fill="none"/>
                <rect id="Rectángulo_319" data-name="Rectángulo 319" width="20.714" height="3.308" rx="1" transform="translate(50.726 113.407)" fill="none"/>
                <rect id="Rectángulo_320" data-name="Rectángulo 320" width="45.116" height="3.308" rx="1" transform="translate(1.02 45.363)" fill="none"/>
                <rect id="Rectángulo_321" data-name="Rectángulo 321" width="45.116" height="3.308" rx="1" transform="translate(107.415 45.363)" fill="none"/>
                <rect id="Rectángulo_322" data-name="Rectángulo 322" width="45.116" height="3.308" rx="1" transform="translate(108.827 60.484)" fill="none"/>
                <rect id="Rectángulo_323" data-name="Rectángulo 323" width="45.116" height="3.308" rx="1" transform="translate(70.538 75.605)" fill="none"/>
                <rect id="Rectángulo_324" data-name="Rectángulo 324" width="45.116" height="3.308" rx="1" transform="translate(134.092 83.165)" fill="none"/>
                <rect id="Rectángulo_325" data-name="Rectángulo 325" width="45.116" height="3.308" rx="1" transform="translate(1.02 173.891)" fill="none"/>
                <rect id="Rectángulo_326" data-name="Rectángulo 326" width="45.116" height="3.308" rx="1" transform="translate(108.827 173.891)" fill="none"/>
                <rect id="Rectángulo_327" data-name="Rectángulo 327" width="45.116" height="3.308" rx="1" transform="translate(215.144 173.891)" fill="none"/>
                <rect id="Rectángulo_328" data-name="Rectángulo 328" width="63.398" height="3.308" rx="1" transform="translate(114.398 22.788)" fill="none"/>
                <rect id="Rectángulo_329" data-name="Rectángulo 329" width="66.222" height="3.308" rx="1" transform="translate(135.426 52.924)" fill="none"/>
                <rect id="Rectángulo_330" data-name="Rectángulo 330" width="98.862" height="3.308" rx="1" transform="translate(213.104 128.528)" fill="none"/>
                <rect id="Rectángulo_332" data-name="Rectángulo 332" width="66.693" height="3.308" rx="1" transform="translate(134.955 181.452)" fill="none"/>
                <rect id="Rectángulo_333" data-name="Rectángulo 333" width="187.799" height="3.308" rx="1" transform="translate(172.146 189.012)" fill="none"/>
                <rect id="Rectángulo_334" data-name="Rectángulo 334" width="297.215" height="3.308" rx="1" transform="translate(156.14 241.956)" fill="none"/>
                <rect id="Rectángulo_335" data-name="Rectángulo 335" width="122.793" height="3.308" rx="1" transform="translate(185.486 317.541)" fill="none"/>
                <rect id="Rectángulo_336" data-name="Rectángulo 336" width="196.156" height="3.308" rx="1" transform="translate(215.144 60.484)" fill="none"/>
              </g>
            </g>
          </g>
        </g>
      </g>
    </g>
    <g id="Project_Dashboard" data-name="Project Dashboard" transform="translate(52 46.036)">
      <g id="Layer_9" data-name="Layer 9">
        <path id="Trazado_559-3" data-name="Trazado 559" d="M0,0H235.958V72.994H0Z" transform="translate(263.091 59.456)" fill="#012840"/>
        <path id="Trazado_101" data-name="Trazado 101" d="M1099.762,782.282H894.7c-8.533,0-15.451-5.625-15.451-12.563h0c0-6.938,6.917-12.563,15.451-12.563h205.057c8.533,0,15.45,5.625,15.45,12.563h0C1115.212,776.658,1108.295,782.282,1099.762,782.282Z" transform="translate(-876.612 -749.327)" fill="#ffd34e"/>
        <path id="Trazado_102" data-name="Trazado 102" d="M1528.244,782.282H1323.188c-8.533,0-15.45-5.625-15.45-12.563h0c0-6.938,6.917-12.563,15.45-12.563h205.056c8.533,0,15.451,5.625,15.451,12.563h0C1543.695,776.658,1536.777,782.282,1528.244,782.282Z" transform="translate(-1044.646 -749.327)" fill="#ffd34e"/>
        <path id="Trazado_103" data-name="Trazado 103" d="M1956.727,782.282H1751.67c-8.533,0-15.451-5.625-15.451-12.563h0c0-6.938,6.918-12.563,15.451-12.563h205.057c8.533,0,15.451,5.625,15.451,12.563h0C1972.178,776.658,1965.26,782.282,1956.727,782.282Z" transform="translate(-1212.68 -749.327)" fill="#ffd34e"/>
        <rect id="Rectángulo_25-2" data-name="Rectángulo 25" width="235.958" height="72.994" transform="translate(2.642 59.456)" fill="#012840" opacity="0.25"/>
        <rect id="Rectángulo_26-3" data-name="Rectángulo 26" width="235.958" height="72.994" transform="translate(523.539 59.456)" fill="#012840" opacity="0.25"/>
        <path id="Trazado_558-2" data-name="Trazado 558" d="M0,0H235.958V72.994H0Z" transform="translate(2.642 145.004)" fill="#ffd34e"/>
        <rect id="Rectángulo_28-2" data-name="Rectángulo 28" width="235.958" height="72.994" transform="translate(263.091 145.004)" fill="#012840" opacity="0.25"/>
        <path id="Trazado_557" data-name="Trazado 557" d="M0,0H235.958V72.994H0Z" transform="translate(523.539 145.004)" fill="#ffd34e" opacity="0.6"/>
        <rect id="Rectángulo_30-3" data-name="Rectángulo 30" width="235.958" height="72.994" transform="translate(2.642 230.552)" fill="#012840" opacity="0.2"/>
        <rect id="Rectángulo_31-2" data-name="Rectángulo 31" width="235.958" height="72.994" transform="translate(263.091 230.552)" fill="#012840" opacity="0.2"/>
        <rect id="Rectángulo_32-3" data-name="Rectángulo 32" width="235.958" height="72.994" transform="translate(523.539 230.552)" fill="#012840" opacity="0.5"/>
        <rect id="Rectángulo_33-4" data-name="Rectángulo 33" width="235.958" height="72.994" transform="translate(2.642 316.1)" fill="#012840" opacity="0.15"/>
        <rect id="Rectángulo_34-2" data-name="Rectángulo 34" width="235.958" height="72.994" transform="translate(263.091 316.1)" fill="#012840" opacity="0.15"/>
        <rect id="Rectángulo_35-3" data-name="Rectángulo 35" width="235.958" height="72.994" transform="translate(523.539 316.1)" fill="#012840" opacity="0.15"/>
        <path id="Trazado_104" data-name="Trazado 104" d="M1633.627,830.21H876.062a.959.959,0,1,1,0-1.878h757.565a.959.959,0,1,1,0,1.878Z" transform="translate(-874.907 -785.326)" fill="#80939f" opacity="0.49"/>
        <path id="Trazado_105" data-name="Trazado 105" d="M1286.125,1172.623a1.064,1.064,0,0,1-1.155-.939V742.253a1.179,1.179,0,0,1,2.309,0v429.43A1.064,1.064,0,0,1,1286.125,1172.623Z" transform="translate(-1035.718 -741.314)" fill="#80939f" opacity="0.49"/>
        <path id="Trazado_106" data-name="Trazado 106" d="M1715.329,1172.623a1.064,1.064,0,0,1-1.155-.939V742.253a1.18,1.18,0,0,1,2.31,0v429.43A1.064,1.064,0,0,1,1715.329,1172.623Z" transform="translate(-1204.035 -741.314)" fill="#80939f" opacity="0.49"/>
        <g id="Grupo_33" data-name="Grupo 33" transform="translate(32.995 72.166)">
          <g id="Grupo_30" data-name="Grupo 30">
            <rect id="Rectángulo_36-2" data-name="Rectángulo 36" width="137.978" height="6.06" transform="translate(0 3.17)" fill="#fff" opacity="0.34"/>
            <rect id="Rectángulo_37-2" data-name="Rectángulo 37" width="15.251" height="12.4" transform="translate(160.001)" fill="#fff" opacity="0.34"/>
          </g>
          <g id="Grupo_31" data-name="Grupo 31" transform="translate(0 17.586)">
            <rect id="Rectángulo_38-2" data-name="Rectángulo 38" width="137.978" height="6.06" transform="translate(0 3.17)" fill="#fff" opacity="0.34"/>
            <rect id="Rectángulo_39-3" data-name="Rectángulo 39" width="15.251" height="12.4" transform="translate(160.001)" fill="#fff" opacity="0.34"/>
          </g>
          <g id="Grupo_32" data-name="Grupo 32" transform="translate(0 35.172)">
            <rect id="Rectángulo_40-3" data-name="Rectángulo 40" width="137.978" height="6.06" transform="translate(0 3.17)" fill="#fff" opacity="0.34"/>
            <rect id="Rectángulo_41-3" data-name="Rectángulo 41" width="15.251" height="12.4" transform="translate(160.001)" fill="#fff" opacity="0.34"/>
          </g>
        </g>
        <g id="Grupo_34" data-name="Grupo 34" transform="translate(653.558 78.253)">
          <rect id="Rectángulo_42-3" data-name="Rectángulo 42" width="80.678" height="5.203" fill="#fff" opacity="0.34"/>
          <rect id="Rectángulo_43-3" data-name="Rectángulo 43" width="80.678" height="5.203" transform="translate(0 15.098)" fill="#fff" opacity="0.34"/>
          <rect id="Rectángulo_44-2" data-name="Rectángulo 44" width="80.678" height="5.203" transform="translate(0 30.197)" fill="#fff" opacity="0.34"/>
        </g>
        <g id="Grupo_38" data-name="Grupo 38" transform="translate(32.995 157.714)">
          <g id="Grupo_35" data-name="Grupo 35">
            <rect id="Rectángulo_45-2" data-name="Rectángulo 45" width="137.978" height="6.06" transform="translate(0 3.17)" fill="#fff" opacity="0.34"/>
            <rect id="Rectángulo_46-2" data-name="Rectángulo 46" width="15.251" height="12.4" transform="translate(160.001)" fill="#fff" opacity="0.34"/>
          </g>
          <g id="Grupo_36" data-name="Grupo 36" transform="translate(0 17.586)">
            <rect id="Rectángulo_47-2" data-name="Rectángulo 47" width="137.978" height="6.06" transform="translate(0 3.17)" fill="#fff" opacity="0.34"/>
            <rect id="Rectángulo_48-2" data-name="Rectángulo 48" width="15.251" height="12.4" transform="translate(160.001)" fill="#fff" opacity="0.34"/>
          </g>
          <g id="Grupo_37" data-name="Grupo 37" transform="translate(0 35.172)">
            <rect id="Rectángulo_49-2" data-name="Rectángulo 49" width="137.978" height="6.06" transform="translate(0 3.17)" fill="#fff" opacity="0.34"/>
            <rect id="Rectángulo_50-2" data-name="Rectángulo 50" width="15.251" height="12.4" transform="translate(160.001)" fill="#fff" opacity="0.34"/>
          </g>
        </g>
        <g id="Grupo_40" data-name="Grupo 40" transform="translate(290.258 72.011)">
          <rect id="Rectángulo_51-3" data-name="Rectángulo 51" width="58.891" height="47.883" fill="#fff" opacity="0.25"/>
          <g id="Grupo_39" data-name="Grupo 39" transform="translate(81.14 5.135)">
            <rect id="Rectángulo_52-3" data-name="Rectángulo 52" width="100.483" height="4.006" fill="#fff" opacity="0.25"/>
            <rect id="Rectángulo_53-2" data-name="Rectángulo 53" width="100.483" height="4.006" transform="translate(0 11.202)" fill="#fff" opacity="0.25"/>
            <rect id="Rectángulo_54-2" data-name="Rectángulo 54" width="100.483" height="4.006" transform="translate(0 22.405)" fill="#fff" opacity="0.25"/>
            <rect id="Rectángulo_55-2" data-name="Rectángulo 55" width="100.483" height="4.006" transform="translate(0 33.607)" fill="#fff" opacity="0.25"/>
          </g>
        </g>
        <g id="Grupo_42" data-name="Grupo 42" transform="translate(290.258 157.559)">
          <rect id="Rectángulo_56-2" data-name="Rectángulo 56" width="58.891" height="47.883" fill="#fff" opacity="0.25"/>
          <g id="Grupo_41" data-name="Grupo 41" transform="translate(81.14 5.135)">
            <rect id="Rectángulo_57-2" data-name="Rectángulo 57" width="100.483" height="4.006" fill="#fff" opacity="0.25"/>
            <rect id="Rectángulo_58-2" data-name="Rectángulo 58" width="100.483" height="4.006" transform="translate(0 11.202)" fill="#fff" opacity="0.25"/>
            <rect id="Rectángulo_59-2" data-name="Rectángulo 59" width="100.483" height="4.006" transform="translate(0 22.405)" fill="#fff" opacity="0.25"/>
            <rect id="Rectángulo_60-2" data-name="Rectángulo 60" width="100.483" height="4.006" transform="translate(0 33.607)" fill="#fff" opacity="0.25"/>
          </g>
        </g>
        <g id="Grupo_44" data-name="Grupo 44" transform="translate(545.231 74.57)">
          <path id="Trazado_107" data-name="Trazado 107" d="M1860.5,913.759a.959.959,0,0,0,.976,0l2.041-1.27a.476.476,0,0,1,.428-.028,13.553,13.553,0,0,0,4.11,1.019.39.39,0,0,1,.336.217l.824,1.982a.825.825,0,0,0,.808.442,17.409,17.409,0,0,0,5.107-.958.65.65,0,0,0,.485-.686l-.333-2.076a.308.308,0,0,1,.185-.316,11,11,0,0,0,3.142-2.383.446.446,0,0,1,.4-.128l2.525.412a.874.874,0,0,0,.875-.346,10.292,10.292,0,0,0,1.529-4.079.65.65,0,0,0-.488-.686l-2.374-.8a.333.333,0,0,1-.243-.289,7.961,7.961,0,0,0-.967-3.406.279.279,0,0,1,.064-.346l1.7-1.568a.562.562,0,0,0,.067-.791,13.436,13.436,0,0,0-3.574-3.113.96.96,0,0,0-.975,0l-2.038,1.267a.476.476,0,0,1-.429.028,13.482,13.482,0,0,0-4.111-1.021.392.392,0,0,1-.337-.217l-.824-1.979a.822.822,0,0,0-.807-.442,17.416,17.416,0,0,0-5.108.958.648.648,0,0,0-.485.686l.33,2.073a.306.306,0,0,1-.184.316,11.064,11.064,0,0,0-3.143,2.384.444.444,0,0,1-.4.128l-2.522-.411a.875.875,0,0,0-.875.347,10.318,10.318,0,0,0-1.529,4.076.652.652,0,0,0,.488.686l2.373.8a.333.333,0,0,1,.243.288,7.949,7.949,0,0,0,.967,3.4.279.279,0,0,1-.064.346l-1.7,1.568a.564.564,0,0,0-.067.791A13.47,13.47,0,0,0,1860.5,913.759Zm5.172-12.77a6.228,6.228,0,0,1,7.537.212,3.792,3.792,0,0,1-.26,6.128,6.23,6.23,0,0,1-7.537-.212A3.792,3.792,0,0,1,1865.674,900.989Z" transform="translate(-1804.366 -892.197)" fill="#fff" opacity="0.25"/>
          <g id="Grupo_43" data-name="Grupo 43" transform="translate(0 2.375)" opacity="0.25">
            <path id="Trazado_108" data-name="Trazado 108" d="M1823.569,908.448q-.464-.67-.974-1.3a1.267,1.267,0,0,0-1.43-.323l-3.722,1.515a20.638,20.638,0,0,0-3.864-3.218l1.948-2.986a.812.812,0,0,0-.364-1.17,29.367,29.367,0,0,0-3.227-1.553,1.272,1.272,0,0,0-1.436.3l-2.292,2.825a26.808,26.808,0,0,0-5.323-1.214l-.15-3.381a1.018,1.018,0,0,0-1.033-.865,33.9,33.9,0,0,0-3.75-.038,1.032,1.032,0,0,0-1.06.845l-.247,3.375a26.59,26.59,0,0,0-5.358,1.116l-2.21-2.868a1.265,1.265,0,0,0-1.428-.329q-.84.325-1.666.7t-1.6.792a.815.815,0,0,0-.4,1.162l1.864,3.026a20.93,20.93,0,0,0-3.959,3.141l-3.674-1.584a1.274,1.274,0,0,0-1.439.3,21.849,21.849,0,0,0-1.911,2.624.812.812,0,0,0,.371,1.167l3.474,1.863a15.9,15.9,0,0,0-1.493,4.328l-4.158.122a1.035,1.035,0,0,0-1.064.84,18.2,18.2,0,0,0-.046,3.049,1.022,1.022,0,0,0,1.039.861l4.151.2a15.509,15.509,0,0,0,1.372,4.357l-3.527,1.8a.817.817,0,0,0-.4,1.161q.4.684.863,1.355t.974,1.3a1.268,1.268,0,0,0,1.43.322l3.722-1.514a20.685,20.685,0,0,0,3.863,3.218l-1.947,2.987a.811.811,0,0,0,.365,1.17,29.538,29.538,0,0,0,3.226,1.554,1.274,1.274,0,0,0,1.436-.3l2.291-2.824a26.845,26.845,0,0,0,5.322,1.214l.151,3.381a1.018,1.018,0,0,0,1.033.865,33.95,33.95,0,0,0,3.75.038,1.033,1.033,0,0,0,1.06-.845l.247-3.375a26.643,26.643,0,0,0,5.357-1.116l2.21,2.868a1.267,1.267,0,0,0,1.428.329q.84-.326,1.666-.7t1.6-.792a.815.815,0,0,0,.4-1.163l-1.863-3.026a21,21,0,0,0,3.959-3.141l3.673,1.584a1.273,1.273,0,0,0,1.438-.3,21.957,21.957,0,0,0,1.911-2.623.812.812,0,0,0-.372-1.167l-3.474-1.863a15.9,15.9,0,0,0,1.493-4.328l4.159-.123a1.034,1.034,0,0,0,1.064-.84,18.26,18.26,0,0,0,.045-3.049,1.022,1.022,0,0,0-1.039-.862l-4.15-.2a15.51,15.51,0,0,0-1.373-4.357l3.527-1.8a.818.818,0,0,0,.406-1.161Q1824.032,909.119,1823.569,908.448Zm-14.267,6.519c3.04,4.4,1.119,9.968-4.291,12.439s-12.26.91-15.3-3.489-1.119-9.969,4.292-12.44S1806.261,910.568,1809.3,914.967Z" transform="translate(-1771.906 -897.001)" fill="#fff"/>
          </g>
        </g>
      </g>
    </g>
  </g>
</svg>
